<?xml version="1.0" encoding="utf-8" standalone="no"?>
<!DOCTYPE svg PUBLIC "-//W3C//DTD SVG 1.1//EN"
  "http://www.w3.org/Graphics/SVG/1.1/DTD/svg11.dtd">
<!-- Created with matplotlib (http://matplotlib.org/) -->
<svg height="345.6pt" version="1.1" viewBox="0 0 460.8 345.6" width="460.8pt" xmlns="http://www.w3.org/2000/svg" xmlns:xlink="http://www.w3.org/1999/xlink">
 <defs>
  <style type="text/css">
*{stroke-linecap:butt;stroke-linejoin:round;}
  </style>
 </defs>
 <g id="figure_1">
  <g id="patch_1">
   <path d="M 0 345.6 
L 460.8 345.6 
L 460.8 0 
L 0 0 
z
" style="fill:none;"/>
  </g>
  <g id="axes_1">
   <g id="patch_2">
    <path clip-path="url(#p8f0ff4d874)" d="M 73.832727 198.576826 
L 78.52088 198.576826 
L 78.52088 135.740515 
L 73.832727 135.740515 
z
" style="fill:#a9a9a9;stroke:#a9a9a9;stroke-linejoin:miter;"/>
   </g>
   <g id="patch_3">
    <path clip-path="url(#p8f0ff4d874)" d="M 79.692918 198.576826 
L 84.38107 198.576826 
L 84.38107 131.801334 
L 79.692918 131.801334 
z
" style="fill:#a9a9a9;stroke:#a9a9a9;stroke-linejoin:miter;"/>
   </g>
   <g id="patch_4">
    <path clip-path="url(#p8f0ff4d874)" d="M 85.553108 198.576826 
L 90.24126 198.576826 
L 90.24126 127.339911 
L 85.553108 127.339911 
z
" style="fill:#a9a9a9;stroke:#a9a9a9;stroke-linejoin:miter;"/>
   </g>
   <g id="patch_5">
    <path clip-path="url(#p8f0ff4d874)" d="M 91.413298 198.576826 
L 96.101451 198.576826 
L 96.101451 124.687564 
L 91.413298 124.687564 
z
" style="fill:#a9a9a9;stroke:#a9a9a9;stroke-linejoin:miter;"/>
   </g>
   <g id="patch_6">
    <path clip-path="url(#p8f0ff4d874)" d="M 97.273489 198.576826 
L 101.961641 198.576826 
L 101.961641 123.09869 
L 97.273489 123.09869 
z
" style="fill:#a9a9a9;stroke:#a9a9a9;stroke-linejoin:miter;"/>
   </g>
   <g id="patch_7">
    <path clip-path="url(#p8f0ff4d874)" d="M 103.133679 198.576826 
L 107.821831 198.576826 
L 107.821831 119.82814 
L 103.133679 119.82814 
z
" style="fill:#a9a9a9;stroke:#a9a9a9;stroke-linejoin:miter;"/>
   </g>
   <g id="patch_8">
    <path clip-path="url(#p8f0ff4d874)" d="M 108.993869 198.576826 
L 113.682022 198.576826 
L 113.682022 120.811525 
L 108.993869 120.811525 
z
" style="fill:#a9a9a9;stroke:#a9a9a9;stroke-linejoin:miter;"/>
   </g>
   <g id="patch_9">
    <path clip-path="url(#p8f0ff4d874)" d="M 114.85406 198.576826 
L 119.542212 198.576826 
L 119.542212 120.608548 
L 114.85406 120.608548 
z
" style="fill:#a9a9a9;stroke:#a9a9a9;stroke-linejoin:miter;"/>
   </g>
   <g id="patch_10">
    <path clip-path="url(#p8f0ff4d874)" d="M 120.71425 198.576826 
L 125.402402 198.576826 
L 125.402402 122.274184 
L 120.71425 122.274184 
z
" style="fill:#a9a9a9;stroke:#a9a9a9;stroke-linejoin:miter;"/>
   </g>
   <g id="patch_11">
    <path clip-path="url(#p8f0ff4d874)" d="M 126.57444 198.576826 
L 131.262593 198.576826 
L 131.262593 125.653292 
L 126.57444 125.653292 
z
" style="fill:#a9a9a9;stroke:#a9a9a9;stroke-linejoin:miter;"/>
   </g>
   <g id="patch_12">
    <path clip-path="url(#p8f0ff4d874)" d="M 132.434631 198.576826 
L 137.122783 198.576826 
L 137.122783 128.814351 
L 132.434631 128.814351 
z
" style="fill:#a9a9a9;stroke:#a9a9a9;stroke-linejoin:miter;"/>
   </g>
   <g id="patch_13">
    <path clip-path="url(#p8f0ff4d874)" d="M 138.294821 198.576826 
L 142.982973 198.576826 
L 142.982973 130.711107 
L 138.294821 130.711107 
z
" style="fill:#a9a9a9;stroke:#a9a9a9;stroke-linejoin:miter;"/>
   </g>
   <g id="patch_14">
    <path clip-path="url(#p8f0ff4d874)" d="M 144.155011 198.576826 
L 148.843164 198.576826 
L 148.843164 129.826345 
L 144.155011 129.826345 
z
" style="fill:#a9a9a9;stroke:#a9a9a9;stroke-linejoin:miter;"/>
   </g>
   <g id="patch_15">
    <path clip-path="url(#p8f0ff4d874)" d="M 150.015202 198.576826 
L 154.703354 198.576826 
L 154.703354 126.955197 
L 150.015202 126.955197 
z
" style="fill:#a9a9a9;stroke:#a9a9a9;stroke-linejoin:miter;"/>
   </g>
   <g id="patch_16">
    <path clip-path="url(#p8f0ff4d874)" d="M 155.875392 198.576826 
L 160.563544 198.576826 
L 160.563544 127.923497 
L 155.875392 127.923497 
z
" style="fill:#a9a9a9;stroke:#a9a9a9;stroke-linejoin:miter;"/>
   </g>
   <g id="patch_17">
    <path clip-path="url(#p8f0ff4d874)" d="M 161.735583 198.576826 
L 166.423735 198.576826 
L 166.423735 127.685847 
L 161.735583 127.685847 
z
" style="fill:#a9a9a9;stroke:#a9a9a9;stroke-linejoin:miter;"/>
   </g>
   <g id="patch_18">
    <path clip-path="url(#p8f0ff4d874)" d="M 167.595773 198.576826 
L 172.283925 198.576826 
L 172.283925 127.609537 
L 167.595773 127.609537 
z
" style="fill:#a9a9a9;stroke:#a9a9a9;stroke-linejoin:miter;"/>
   </g>
   <g id="patch_19">
    <path clip-path="url(#p8f0ff4d874)" d="M 173.455963 198.576826 
L 178.144116 198.576826 
L 178.144116 127.484333 
L 173.455963 127.484333 
z
" style="fill:#a9a9a9;stroke:#a9a9a9;stroke-linejoin:miter;"/>
   </g>
   <g id="patch_20">
    <path clip-path="url(#p8f0ff4d874)" d="M 179.316154 198.576826 
L 184.004306 198.576826 
L 184.004306 127.148798 
L 179.316154 127.148798 
z
" style="fill:#a9a9a9;stroke:#a9a9a9;stroke-linejoin:miter;"/>
   </g>
   <g id="patch_21">
    <path clip-path="url(#p8f0ff4d874)" d="M 185.176344 198.576826 
L 189.864496 198.576826 
L 189.864496 125.320462 
L 185.176344 125.320462 
z
" style="fill:#a9a9a9;stroke:#a9a9a9;stroke-linejoin:miter;"/>
   </g>
   <g id="patch_22">
    <path clip-path="url(#p8f0ff4d874)" d="M 191.036534 198.576826 
L 195.724687 198.576826 
L 195.724687 124.822554 
L 191.036534 124.822554 
z
" style="fill:#a9a9a9;stroke:#a9a9a9;stroke-linejoin:miter;"/>
   </g>
   <g id="patch_23">
    <path clip-path="url(#p8f0ff4d874)" d="M 196.896725 198.576826 
L 201.584877 198.576826 
L 201.584877 127.257028 
L 196.896725 127.257028 
z
" style="fill:#a9a9a9;stroke:#a9a9a9;stroke-linejoin:miter;"/>
   </g>
   <g id="patch_24">
    <path clip-path="url(#p8f0ff4d874)" d="M 202.756915 198.576826 
L 207.445067 198.576826 
L 207.445067 129.258806 
L 202.756915 129.258806 
z
" style="fill:#a9a9a9;stroke:#a9a9a9;stroke-linejoin:miter;"/>
   </g>
   <g id="patch_25">
    <path clip-path="url(#p8f0ff4d874)" d="M 208.617105 198.576826 
L 213.305258 198.576826 
L 213.305258 130.508603 
L 208.617105 130.508603 
z
" style="fill:#a9a9a9;stroke:#a9a9a9;stroke-linejoin:miter;"/>
   </g>
   <g id="patch_26">
    <path clip-path="url(#p8f0ff4d874)" d="M 214.477296 198.576826 
L 219.165448 198.576826 
L 219.165448 134.730236 
L 214.477296 134.730236 
z
" style="fill:#a9a9a9;stroke:#a9a9a9;stroke-linejoin:miter;"/>
   </g>
   <g id="patch_27">
    <path clip-path="url(#p8f0ff4d874)" d="M 220.337486 198.576826 
L 225.025638 198.576826 
L 225.025638 136.436492 
L 220.337486 136.436492 
z
" style="fill:#a9a9a9;stroke:#a9a9a9;stroke-linejoin:miter;"/>
   </g>
   <g id="patch_28">
    <path clip-path="url(#p8f0ff4d874)" d="M 226.197676 198.576826 
L 230.885829 198.576826 
L 230.885829 135.312526 
L 226.197676 135.312526 
z
" style="fill:#a9a9a9;stroke:#a9a9a9;stroke-linejoin:miter;"/>
   </g>
   <g id="patch_29">
    <path clip-path="url(#p8f0ff4d874)" d="M 232.057867 198.576826 
L 236.746019 198.576826 
L 236.746019 136.75842 
L 232.057867 136.75842 
z
" style="fill:#a9a9a9;stroke:#a9a9a9;stroke-linejoin:miter;"/>
   </g>
   <g id="patch_30">
    <path clip-path="url(#p8f0ff4d874)" d="M 237.918057 198.576826 
L 242.606209 198.576826 
L 242.606209 138.74832 
L 237.918057 138.74832 
z
" style="fill:#a9a9a9;stroke:#a9a9a9;stroke-linejoin:miter;"/>
   </g>
   <g id="patch_31">
    <path clip-path="url(#p8f0ff4d874)" d="M 243.778247 198.576826 
L 248.4664 198.576826 
L 248.4664 140.101266 
L 243.778247 140.101266 
z
" style="fill:#a9a9a9;stroke:#a9a9a9;stroke-linejoin:miter;"/>
   </g>
   <g id="patch_32">
    <path clip-path="url(#p8f0ff4d874)" d="M 249.638438 198.576826 
L 254.32659 198.576826 
L 254.32659 140.567895 
L 249.638438 140.567895 
z
" style="fill:#a9a9a9;stroke:#a9a9a9;stroke-linejoin:miter;"/>
   </g>
   <g id="patch_33">
    <path clip-path="url(#p8f0ff4d874)" d="M 255.498628 198.576826 
L 260.18678 198.576826 
L 260.18678 140.756888 
L 255.498628 140.756888 
z
" style="fill:#a9a9a9;stroke:#a9a9a9;stroke-linejoin:miter;"/>
   </g>
   <g id="patch_34">
    <path clip-path="url(#p8f0ff4d874)" d="M 261.358819 198.576826 
L 266.046971 198.576826 
L 266.046971 140.937677 
L 261.358819 140.937677 
z
" style="fill:#a9a9a9;stroke:#a9a9a9;stroke-linejoin:miter;"/>
   </g>
   <g id="patch_35">
    <path clip-path="url(#p8f0ff4d874)" d="M 267.219009 198.576826 
L 271.907161 198.576826 
L 271.907161 142.734478 
L 267.219009 142.734478 
z
" style="fill:#a9a9a9;stroke:#a9a9a9;stroke-linejoin:miter;"/>
   </g>
   <g id="patch_36">
    <path clip-path="url(#p8f0ff4d874)" d="M 273.079199 198.576826 
L 277.767351 198.576826 
L 277.767351 144.68196 
L 273.079199 144.68196 
z
" style="fill:#a9a9a9;stroke:#a9a9a9;stroke-linejoin:miter;"/>
   </g>
   <g id="patch_37">
    <path clip-path="url(#p8f0ff4d874)" d="M 278.93939 198.576826 
L 283.627542 198.576826 
L 283.627542 144.680942 
L 278.93939 144.680942 
z
" style="fill:#a9a9a9;stroke:#a9a9a9;stroke-linejoin:miter;"/>
   </g>
   <g id="patch_38">
    <path clip-path="url(#p8f0ff4d874)" d="M 284.79958 198.576826 
L 289.487732 198.576826 
L 289.487732 145.114551 
L 284.79958 145.114551 
z
" style="fill:#a9a9a9;stroke:#a9a9a9;stroke-linejoin:miter;"/>
   </g>
   <g id="patch_39">
    <path clip-path="url(#p8f0ff4d874)" d="M 290.65977 198.576826 
L 295.347923 198.576826 
L 295.347923 145.42352 
L 290.65977 145.42352 
z
" style="fill:#a9a9a9;stroke:#a9a9a9;stroke-linejoin:miter;"/>
   </g>
   <g id="patch_40">
    <path clip-path="url(#p8f0ff4d874)" d="M 296.519961 198.576826 
L 301.208113 198.576826 
L 301.208113 147.220453 
L 296.519961 147.220453 
z
" style="fill:#a9a9a9;stroke:#a9a9a9;stroke-linejoin:miter;"/>
   </g>
   <g id="patch_41">
    <path clip-path="url(#p8f0ff4d874)" d="M 302.380151 198.576826 
L 307.068303 198.576826 
L 307.068303 148.038169 
L 302.380151 148.038169 
z
" style="fill:#a9a9a9;stroke:#a9a9a9;stroke-linejoin:miter;"/>
   </g>
   <g id="patch_42">
    <path clip-path="url(#p8f0ff4d874)" d="M 308.240341 198.576826 
L 312.928494 198.576826 
L 312.928494 150.479174 
L 308.240341 150.479174 
z
" style="fill:#a9a9a9;stroke:#a9a9a9;stroke-linejoin:miter;"/>
   </g>
   <g id="patch_43">
    <path clip-path="url(#p8f0ff4d874)" d="M 314.100532 198.576826 
L 318.788684 198.576826 
L 318.788684 151.001695 
L 314.100532 151.001695 
z
" style="fill:#a9a9a9;stroke:#a9a9a9;stroke-linejoin:miter;"/>
   </g>
   <g id="patch_44">
    <path clip-path="url(#p8f0ff4d874)" d="M 319.960722 198.576826 
L 324.648874 198.576826 
L 324.648874 150.758956 
L 319.960722 150.758956 
z
" style="fill:#a9a9a9;stroke:#a9a9a9;stroke-linejoin:miter;"/>
   </g>
   <g id="patch_45">
    <path clip-path="url(#p8f0ff4d874)" d="M 325.820912 198.576826 
L 330.509065 198.576826 
L 330.509065 151.286845 
L 325.820912 151.286845 
z
" style="fill:#a9a9a9;stroke:#a9a9a9;stroke-linejoin:miter;"/>
   </g>
   <g id="patch_46">
    <path clip-path="url(#p8f0ff4d874)" d="M 331.681103 198.576826 
L 336.369255 198.576826 
L 336.369255 147.947276 
L 331.681103 147.947276 
z
" style="fill:#a9a9a9;stroke:#a9a9a9;stroke-linejoin:miter;"/>
   </g>
   <g id="patch_47">
    <path clip-path="url(#p8f0ff4d874)" d="M 337.541293 198.576826 
L 342.229445 198.576826 
L 342.229445 145.952538 
L 337.541293 145.952538 
z
" style="fill:#a9a9a9;stroke:#a9a9a9;stroke-linejoin:miter;"/>
   </g>
   <g id="patch_48">
    <path clip-path="url(#p8f0ff4d874)" d="M 343.401483 198.576826 
L 348.089636 198.576826 
L 348.089636 143.793936 
L 343.401483 143.793936 
z
" style="fill:#a9a9a9;stroke:#a9a9a9;stroke-linejoin:miter;"/>
   </g>
   <g id="patch_49">
    <path clip-path="url(#p8f0ff4d874)" d="M 349.261674 198.576826 
L 353.949826 198.576826 
L 353.949826 136.511004 
L 349.261674 136.511004 
z
" style="fill:#a9a9a9;stroke:#a9a9a9;stroke-linejoin:miter;"/>
   </g>
   <g id="patch_50">
    <path clip-path="url(#p8f0ff4d874)" d="M 355.121864 198.576826 
L 359.810016 198.576826 
L 359.810016 128.371841 
L 355.121864 128.371841 
z
" style="fill:#a9a9a9;stroke:#a9a9a9;stroke-linejoin:miter;"/>
   </g>
   <g id="patch_51">
    <path clip-path="url(#p8f0ff4d874)" d="M 360.982054 198.576826 
L 365.670207 198.576826 
L 365.670207 116.542469 
L 360.982054 116.542469 
z
" style="fill:#a9a9a9;stroke:#a9a9a9;stroke-linejoin:miter;"/>
   </g>
   <g id="patch_52">
    <path clip-path="url(#p8f0ff4d874)" d="M 366.842245 198.576826 
L 371.530397 198.576826 
L 371.530397 109.696568 
L 366.842245 109.696568 
z
" style="fill:#a9a9a9;stroke:#a9a9a9;stroke-linejoin:miter;"/>
   </g>
   <g id="patch_53">
    <path clip-path="url(#p8f0ff4d874)" d="M 372.702435 198.576826 
L 377.390587 198.576826 
L 377.390587 112.376596 
L 372.702435 112.376596 
z
" style="fill:#a9a9a9;stroke:#a9a9a9;stroke-linejoin:miter;"/>
   </g>
   <g id="patch_54">
    <path clip-path="url(#p8f0ff4d874)" d="M 378.562626 198.576826 
L 383.250778 198.576826 
L 383.250778 107.558432 
L 378.562626 107.558432 
z
" style="fill:#a9a9a9;stroke:#a9a9a9;stroke-linejoin:miter;"/>
   </g>
   <g id="patch_55">
    <path clip-path="url(#p8f0ff4d874)" d="M 73.832727 198.576826 
L 78.52088 198.576826 
L 78.52088 198.576826 
L 73.832727 198.576826 
z
" style="fill:#008000;stroke:#008000;stroke-linejoin:miter;"/>
   </g>
   <g id="patch_56">
    <path clip-path="url(#p8f0ff4d874)" d="M 79.692918 198.576826 
L 84.38107 198.576826 
L 84.38107 198.576826 
L 79.692918 198.576826 
z
" style="fill:#008000;stroke:#008000;stroke-linejoin:miter;"/>
   </g>
   <g id="patch_57">
    <path clip-path="url(#p8f0ff4d874)" d="M 85.553108 198.576826 
L 90.24126 198.576826 
L 90.24126 198.576826 
L 85.553108 198.576826 
z
" style="fill:#008000;stroke:#008000;stroke-linejoin:miter;"/>
   </g>
   <g id="patch_58">
    <path clip-path="url(#p8f0ff4d874)" d="M 91.413298 198.576826 
L 96.101451 198.576826 
L 96.101451 198.576826 
L 91.413298 198.576826 
z
" style="fill:#008000;stroke:#008000;stroke-linejoin:miter;"/>
   </g>
   <g id="patch_59">
    <path clip-path="url(#p8f0ff4d874)" d="M 97.273489 198.576826 
L 101.961641 198.576826 
L 101.961641 198.576826 
L 97.273489 198.576826 
z
" style="fill:#008000;stroke:#008000;stroke-linejoin:miter;"/>
   </g>
   <g id="patch_60">
    <path clip-path="url(#p8f0ff4d874)" d="M 103.133679 198.576826 
L 107.821831 198.576826 
L 107.821831 198.576826 
L 103.133679 198.576826 
z
" style="fill:#008000;stroke:#008000;stroke-linejoin:miter;"/>
   </g>
   <g id="patch_61">
    <path clip-path="url(#p8f0ff4d874)" d="M 108.993869 198.576826 
L 113.682022 198.576826 
L 113.682022 198.576826 
L 108.993869 198.576826 
z
" style="fill:#008000;stroke:#008000;stroke-linejoin:miter;"/>
   </g>
   <g id="patch_62">
    <path clip-path="url(#p8f0ff4d874)" d="M 114.85406 198.576826 
L 119.542212 198.576826 
L 119.542212 198.576826 
L 114.85406 198.576826 
z
" style="fill:#008000;stroke:#008000;stroke-linejoin:miter;"/>
   </g>
   <g id="patch_63">
    <path clip-path="url(#p8f0ff4d874)" d="M 120.71425 198.576826 
L 125.402402 198.576826 
L 125.402402 198.576826 
L 120.71425 198.576826 
z
" style="fill:#008000;stroke:#008000;stroke-linejoin:miter;"/>
   </g>
   <g id="patch_64">
    <path clip-path="url(#p8f0ff4d874)" d="M 126.57444 198.576826 
L 131.262593 198.576826 
L 131.262593 198.576826 
L 126.57444 198.576826 
z
" style="fill:#008000;stroke:#008000;stroke-linejoin:miter;"/>
   </g>
   <g id="patch_65">
    <path clip-path="url(#p8f0ff4d874)" d="M 132.434631 198.576826 
L 137.122783 198.576826 
L 137.122783 198.576826 
L 132.434631 198.576826 
z
" style="fill:#008000;stroke:#008000;stroke-linejoin:miter;"/>
   </g>
   <g id="patch_66">
    <path clip-path="url(#p8f0ff4d874)" d="M 138.294821 198.576826 
L 142.982973 198.576826 
L 142.982973 198.576826 
L 138.294821 198.576826 
z
" style="fill:#008000;stroke:#008000;stroke-linejoin:miter;"/>
   </g>
   <g id="patch_67">
    <path clip-path="url(#p8f0ff4d874)" d="M 144.155011 198.576826 
L 148.843164 198.576826 
L 148.843164 198.576826 
L 144.155011 198.576826 
z
" style="fill:#008000;stroke:#008000;stroke-linejoin:miter;"/>
   </g>
   <g id="patch_68">
    <path clip-path="url(#p8f0ff4d874)" d="M 150.015202 198.576826 
L 154.703354 198.576826 
L 154.703354 198.576826 
L 150.015202 198.576826 
z
" style="fill:#008000;stroke:#008000;stroke-linejoin:miter;"/>
   </g>
   <g id="patch_69">
    <path clip-path="url(#p8f0ff4d874)" d="M 155.875392 198.576826 
L 160.563544 198.576826 
L 160.563544 198.576826 
L 155.875392 198.576826 
z
" style="fill:#008000;stroke:#008000;stroke-linejoin:miter;"/>
   </g>
   <g id="patch_70">
    <path clip-path="url(#p8f0ff4d874)" d="M 161.735583 198.576826 
L 166.423735 198.576826 
L 166.423735 198.576826 
L 161.735583 198.576826 
z
" style="fill:#008000;stroke:#008000;stroke-linejoin:miter;"/>
   </g>
   <g id="patch_71">
    <path clip-path="url(#p8f0ff4d874)" d="M 167.595773 198.576826 
L 172.283925 198.576826 
L 172.283925 198.576826 
L 167.595773 198.576826 
z
" style="fill:#008000;stroke:#008000;stroke-linejoin:miter;"/>
   </g>
   <g id="patch_72">
    <path clip-path="url(#p8f0ff4d874)" d="M 173.455963 198.576826 
L 178.144116 198.576826 
L 178.144116 198.576826 
L 173.455963 198.576826 
z
" style="fill:#008000;stroke:#008000;stroke-linejoin:miter;"/>
   </g>
   <g id="patch_73">
    <path clip-path="url(#p8f0ff4d874)" d="M 179.316154 198.576826 
L 184.004306 198.576826 
L 184.004306 198.576826 
L 179.316154 198.576826 
z
" style="fill:#008000;stroke:#008000;stroke-linejoin:miter;"/>
   </g>
   <g id="patch_74">
    <path clip-path="url(#p8f0ff4d874)" d="M 185.176344 198.576826 
L 189.864496 198.576826 
L 189.864496 198.576826 
L 185.176344 198.576826 
z
" style="fill:#008000;stroke:#008000;stroke-linejoin:miter;"/>
   </g>
   <g id="patch_75">
    <path clip-path="url(#p8f0ff4d874)" d="M 191.036534 198.576826 
L 195.724687 198.576826 
L 195.724687 198.576826 
L 191.036534 198.576826 
z
" style="fill:#008000;stroke:#008000;stroke-linejoin:miter;"/>
   </g>
   <g id="patch_76">
    <path clip-path="url(#p8f0ff4d874)" d="M 196.896725 198.576826 
L 201.584877 198.576826 
L 201.584877 198.576826 
L 196.896725 198.576826 
z
" style="fill:#008000;stroke:#008000;stroke-linejoin:miter;"/>
   </g>
   <g id="patch_77">
    <path clip-path="url(#p8f0ff4d874)" d="M 202.756915 198.576826 
L 207.445067 198.576826 
L 207.445067 198.576826 
L 202.756915 198.576826 
z
" style="fill:#008000;stroke:#008000;stroke-linejoin:miter;"/>
   </g>
   <g id="patch_78">
    <path clip-path="url(#p8f0ff4d874)" d="M 208.617105 198.576826 
L 213.305258 198.576826 
L 213.305258 198.576826 
L 208.617105 198.576826 
z
" style="fill:#008000;stroke:#008000;stroke-linejoin:miter;"/>
   </g>
   <g id="patch_79">
    <path clip-path="url(#p8f0ff4d874)" d="M 214.477296 198.576826 
L 219.165448 198.576826 
L 219.165448 198.576826 
L 214.477296 198.576826 
z
" style="fill:#008000;stroke:#008000;stroke-linejoin:miter;"/>
   </g>
   <g id="patch_80">
    <path clip-path="url(#p8f0ff4d874)" d="M 220.337486 198.576826 
L 225.025638 198.576826 
L 225.025638 198.576826 
L 220.337486 198.576826 
z
" style="fill:#008000;stroke:#008000;stroke-linejoin:miter;"/>
   </g>
   <g id="patch_81">
    <path clip-path="url(#p8f0ff4d874)" d="M 226.197676 198.576826 
L 230.885829 198.576826 
L 230.885829 198.576826 
L 226.197676 198.576826 
z
" style="fill:#008000;stroke:#008000;stroke-linejoin:miter;"/>
   </g>
   <g id="patch_82">
    <path clip-path="url(#p8f0ff4d874)" d="M 232.057867 198.576826 
L 236.746019 198.576826 
L 236.746019 198.576826 
L 232.057867 198.576826 
z
" style="fill:#008000;stroke:#008000;stroke-linejoin:miter;"/>
   </g>
   <g id="patch_83">
    <path clip-path="url(#p8f0ff4d874)" d="M 237.918057 198.576826 
L 242.606209 198.576826 
L 242.606209 198.576826 
L 237.918057 198.576826 
z
" style="fill:#008000;stroke:#008000;stroke-linejoin:miter;"/>
   </g>
   <g id="patch_84">
    <path clip-path="url(#p8f0ff4d874)" d="M 243.778247 198.576826 
L 248.4664 198.576826 
L 248.4664 198.576826 
L 243.778247 198.576826 
z
" style="fill:#008000;stroke:#008000;stroke-linejoin:miter;"/>
   </g>
   <g id="patch_85">
    <path clip-path="url(#p8f0ff4d874)" d="M 249.638438 198.576826 
L 254.32659 198.576826 
L 254.32659 198.576826 
L 249.638438 198.576826 
z
" style="fill:#008000;stroke:#008000;stroke-linejoin:miter;"/>
   </g>
   <g id="patch_86">
    <path clip-path="url(#p8f0ff4d874)" d="M 255.498628 198.576826 
L 260.18678 198.576826 
L 260.18678 198.576826 
L 255.498628 198.576826 
z
" style="fill:#008000;stroke:#008000;stroke-linejoin:miter;"/>
   </g>
   <g id="patch_87">
    <path clip-path="url(#p8f0ff4d874)" d="M 261.358819 198.576826 
L 266.046971 198.576826 
L 266.046971 198.576826 
L 261.358819 198.576826 
z
" style="fill:#008000;stroke:#008000;stroke-linejoin:miter;"/>
   </g>
   <g id="patch_88">
    <path clip-path="url(#p8f0ff4d874)" d="M 267.219009 198.576826 
L 271.907161 198.576826 
L 271.907161 198.576826 
L 267.219009 198.576826 
z
" style="fill:#008000;stroke:#008000;stroke-linejoin:miter;"/>
   </g>
   <g id="patch_89">
    <path clip-path="url(#p8f0ff4d874)" d="M 273.079199 198.576826 
L 277.767351 198.576826 
L 277.767351 198.576826 
L 273.079199 198.576826 
z
" style="fill:#008000;stroke:#008000;stroke-linejoin:miter;"/>
   </g>
   <g id="patch_90">
    <path clip-path="url(#p8f0ff4d874)" d="M 278.93939 198.576826 
L 283.627542 198.576826 
L 283.627542 198.576826 
L 278.93939 198.576826 
z
" style="fill:#008000;stroke:#008000;stroke-linejoin:miter;"/>
   </g>
   <g id="patch_91">
    <path clip-path="url(#p8f0ff4d874)" d="M 284.79958 198.576826 
L 289.487732 198.576826 
L 289.487732 198.576826 
L 284.79958 198.576826 
z
" style="fill:#008000;stroke:#008000;stroke-linejoin:miter;"/>
   </g>
   <g id="patch_92">
    <path clip-path="url(#p8f0ff4d874)" d="M 290.65977 198.576826 
L 295.347923 198.576826 
L 295.347923 198.576826 
L 290.65977 198.576826 
z
" style="fill:#008000;stroke:#008000;stroke-linejoin:miter;"/>
   </g>
   <g id="patch_93">
    <path clip-path="url(#p8f0ff4d874)" d="M 296.519961 198.576826 
L 301.208113 198.576826 
L 301.208113 198.576826 
L 296.519961 198.576826 
z
" style="fill:#008000;stroke:#008000;stroke-linejoin:miter;"/>
   </g>
   <g id="patch_94">
    <path clip-path="url(#p8f0ff4d874)" d="M 302.380151 198.576826 
L 307.068303 198.576826 
L 307.068303 198.576826 
L 302.380151 198.576826 
z
" style="fill:#008000;stroke:#008000;stroke-linejoin:miter;"/>
   </g>
   <g id="patch_95">
    <path clip-path="url(#p8f0ff4d874)" d="M 308.240341 198.576826 
L 312.928494 198.576826 
L 312.928494 198.576826 
L 308.240341 198.576826 
z
" style="fill:#008000;stroke:#008000;stroke-linejoin:miter;"/>
   </g>
   <g id="patch_96">
    <path clip-path="url(#p8f0ff4d874)" d="M 314.100532 198.576826 
L 318.788684 198.576826 
L 318.788684 198.576826 
L 314.100532 198.576826 
z
" style="fill:#008000;stroke:#008000;stroke-linejoin:miter;"/>
   </g>
   <g id="patch_97">
    <path clip-path="url(#p8f0ff4d874)" d="M 319.960722 198.576826 
L 324.648874 198.576826 
L 324.648874 198.576826 
L 319.960722 198.576826 
z
" style="fill:#008000;stroke:#008000;stroke-linejoin:miter;"/>
   </g>
   <g id="patch_98">
    <path clip-path="url(#p8f0ff4d874)" d="M 325.820912 198.576826 
L 330.509065 198.576826 
L 330.509065 198.576826 
L 325.820912 198.576826 
z
" style="fill:#008000;stroke:#008000;stroke-linejoin:miter;"/>
   </g>
   <g id="patch_99">
    <path clip-path="url(#p8f0ff4d874)" d="M 331.681103 198.576826 
L 336.369255 198.576826 
L 336.369255 198.576826 
L 331.681103 198.576826 
z
" style="fill:#008000;stroke:#008000;stroke-linejoin:miter;"/>
   </g>
   <g id="patch_100">
    <path clip-path="url(#p8f0ff4d874)" d="M 337.541293 198.576826 
L 342.229445 198.576826 
L 342.229445 198.576826 
L 337.541293 198.576826 
z
" style="fill:#008000;stroke:#008000;stroke-linejoin:miter;"/>
   </g>
   <g id="patch_101">
    <path clip-path="url(#p8f0ff4d874)" d="M 343.401483 198.576826 
L 348.089636 198.576826 
L 348.089636 198.576826 
L 343.401483 198.576826 
z
" style="fill:#008000;stroke:#008000;stroke-linejoin:miter;"/>
   </g>
   <g id="patch_102">
    <path clip-path="url(#p8f0ff4d874)" d="M 349.261674 198.576826 
L 353.949826 198.576826 
L 353.949826 198.576826 
L 349.261674 198.576826 
z
" style="fill:#008000;stroke:#008000;stroke-linejoin:miter;"/>
   </g>
   <g id="patch_103">
    <path clip-path="url(#p8f0ff4d874)" d="M 355.121864 198.576826 
L 359.810016 198.576826 
L 359.810016 198.576826 
L 355.121864 198.576826 
z
" style="fill:#008000;stroke:#008000;stroke-linejoin:miter;"/>
   </g>
   <g id="patch_104">
    <path clip-path="url(#p8f0ff4d874)" d="M 360.982054 198.576826 
L 365.670207 198.576826 
L 365.670207 198.576826 
L 360.982054 198.576826 
z
" style="fill:#008000;stroke:#008000;stroke-linejoin:miter;"/>
   </g>
   <g id="patch_105">
    <path clip-path="url(#p8f0ff4d874)" d="M 366.842245 198.576826 
L 371.530397 198.576826 
L 371.530397 198.576826 
L 366.842245 198.576826 
z
" style="fill:#008000;stroke:#008000;stroke-linejoin:miter;"/>
   </g>
   <g id="patch_106">
    <path clip-path="url(#p8f0ff4d874)" d="M 372.702435 198.576826 
L 377.390587 198.576826 
L 377.390587 198.576826 
L 372.702435 198.576826 
z
" style="fill:#008000;stroke:#008000;stroke-linejoin:miter;"/>
   </g>
   <g id="patch_107">
    <path clip-path="url(#p8f0ff4d874)" d="M 378.562626 198.576826 
L 383.250778 198.576826 
L 383.250778 198.576826 
L 378.562626 198.576826 
z
" style="fill:#008000;stroke:#008000;stroke-linejoin:miter;"/>
   </g>
   <g id="patch_108">
    <path clip-path="url(#p8f0ff4d874)" d="M 73.832727 198.576826 
L 78.52088 198.576826 
L 78.52088 216.060005 
L 73.832727 216.060005 
z
" style="fill:#ff0000;stroke:#ff0000;stroke-linejoin:miter;"/>
   </g>
   <g id="patch_109">
    <path clip-path="url(#p8f0ff4d874)" d="M 79.692918 198.576826 
L 84.38107 198.576826 
L 84.38107 216.151091 
L 79.692918 216.151091 
z
" style="fill:#ff0000;stroke:#ff0000;stroke-linejoin:miter;"/>
   </g>
   <g id="patch_110">
    <path clip-path="url(#p8f0ff4d874)" d="M 85.553108 198.576826 
L 90.24126 198.576826 
L 90.24126 214.941802 
L 85.553108 214.941802 
z
" style="fill:#ff0000;stroke:#ff0000;stroke-linejoin:miter;"/>
   </g>
   <g id="patch_111">
    <path clip-path="url(#p8f0ff4d874)" d="M 91.413298 198.576826 
L 96.101451 198.576826 
L 96.101451 218.128717 
L 91.413298 218.128717 
z
" style="fill:#ff0000;stroke:#ff0000;stroke-linejoin:miter;"/>
   </g>
   <g id="patch_112">
    <path clip-path="url(#p8f0ff4d874)" d="M 97.273489 198.576826 
L 101.961641 198.576826 
L 101.961641 221.757085 
L 97.273489 221.757085 
z
" style="fill:#ff0000;stroke:#ff0000;stroke-linejoin:miter;"/>
   </g>
   <g id="patch_113">
    <path clip-path="url(#p8f0ff4d874)" d="M 103.133679 198.576826 
L 107.821831 198.576826 
L 107.821831 222.368779 
L 103.133679 222.368779 
z
" style="fill:#ff0000;stroke:#ff0000;stroke-linejoin:miter;"/>
   </g>
   <g id="patch_114">
    <path clip-path="url(#p8f0ff4d874)" d="M 108.993869 198.576826 
L 113.682022 198.576826 
L 113.682022 226.927152 
L 108.993869 226.927152 
z
" style="fill:#ff0000;stroke:#ff0000;stroke-linejoin:miter;"/>
   </g>
   <g id="patch_115">
    <path clip-path="url(#p8f0ff4d874)" d="M 114.85406 198.576826 
L 119.542212 198.576826 
L 119.542212 234.796812 
L 114.85406 234.796812 
z
" style="fill:#ff0000;stroke:#ff0000;stroke-linejoin:miter;"/>
   </g>
   <g id="patch_116">
    <path clip-path="url(#p8f0ff4d874)" d="M 120.71425 198.576826 
L 125.402402 198.576826 
L 125.402402 242.994968 
L 120.71425 242.994968 
z
" style="fill:#ff0000;stroke:#ff0000;stroke-linejoin:miter;"/>
   </g>
   <g id="patch_117">
    <path clip-path="url(#p8f0ff4d874)" d="M 126.57444 198.576826 
L 131.262593 198.576826 
L 131.262593 241.583114 
L 126.57444 241.583114 
z
" style="fill:#ff0000;stroke:#ff0000;stroke-linejoin:miter;"/>
   </g>
   <g id="patch_118">
    <path clip-path="url(#p8f0ff4d874)" d="M 132.434631 198.576826 
L 137.122783 198.576826 
L 137.122783 242.673222 
L 132.434631 242.673222 
z
" style="fill:#ff0000;stroke:#ff0000;stroke-linejoin:miter;"/>
   </g>
   <g id="patch_119">
    <path clip-path="url(#p8f0ff4d874)" d="M 138.294821 198.576826 
L 142.982973 198.576826 
L 142.982973 252.427411 
L 138.294821 252.427411 
z
" style="fill:#ff0000;stroke:#ff0000;stroke-linejoin:miter;"/>
   </g>
   <g id="patch_120">
    <path clip-path="url(#p8f0ff4d874)" d="M 144.155011 198.576826 
L 148.843164 198.576826 
L 148.843164 258.392365 
L 144.155011 258.392365 
z
" style="fill:#ff0000;stroke:#ff0000;stroke-linejoin:miter;"/>
   </g>
   <g id="patch_121">
    <path clip-path="url(#p8f0ff4d874)" d="M 150.015202 198.576826 
L 154.703354 198.576826 
L 154.703354 257.700124 
L 150.015202 257.700124 
z
" style="fill:#ff0000;stroke:#ff0000;stroke-linejoin:miter;"/>
   </g>
   <g id="patch_122">
    <path clip-path="url(#p8f0ff4d874)" d="M 155.875392 198.576826 
L 160.563544 198.576826 
L 160.563544 256.453578 
L 155.875392 256.453578 
z
" style="fill:#ff0000;stroke:#ff0000;stroke-linejoin:miter;"/>
   </g>
   <g id="patch_123">
    <path clip-path="url(#p8f0ff4d874)" d="M 161.735583 198.576826 
L 166.423735 198.576826 
L 166.423735 246.625034 
L 161.735583 246.625034 
z
" style="fill:#ff0000;stroke:#ff0000;stroke-linejoin:miter;"/>
   </g>
   <g id="patch_124">
    <path clip-path="url(#p8f0ff4d874)" d="M 167.595773 198.576826 
L 172.283925 198.576826 
L 172.283925 239.559331 
L 167.595773 239.559331 
z
" style="fill:#ff0000;stroke:#ff0000;stroke-linejoin:miter;"/>
   </g>
   <g id="patch_125">
    <path clip-path="url(#p8f0ff4d874)" d="M 173.455963 198.576826 
L 178.144116 198.576826 
L 178.144116 234.103288 
L 173.455963 234.103288 
z
" style="fill:#ff0000;stroke:#ff0000;stroke-linejoin:miter;"/>
   </g>
   <g id="patch_126">
    <path clip-path="url(#p8f0ff4d874)" d="M 179.316154 198.576826 
L 184.004306 198.576826 
L 184.004306 233.346557 
L 179.316154 233.346557 
z
" style="fill:#ff0000;stroke:#ff0000;stroke-linejoin:miter;"/>
   </g>
   <g id="patch_127">
    <path clip-path="url(#p8f0ff4d874)" d="M 185.176344 198.576826 
L 189.864496 198.576826 
L 189.864496 234.939645 
L 185.176344 234.939645 
z
" style="fill:#ff0000;stroke:#ff0000;stroke-linejoin:miter;"/>
   </g>
   <g id="patch_128">
    <path clip-path="url(#p8f0ff4d874)" d="M 191.036534 198.576826 
L 195.724687 198.576826 
L 195.724687 234.44712 
L 191.036534 234.44712 
z
" style="fill:#ff0000;stroke:#ff0000;stroke-linejoin:miter;"/>
   </g>
   <g id="patch_129">
    <path clip-path="url(#p8f0ff4d874)" d="M 196.896725 198.576826 
L 201.584877 198.576826 
L 201.584877 240.748763 
L 196.896725 240.748763 
z
" style="fill:#ff0000;stroke:#ff0000;stroke-linejoin:miter;"/>
   </g>
   <g id="patch_130">
    <path clip-path="url(#p8f0ff4d874)" d="M 202.756915 198.576826 
L 207.445067 198.576826 
L 207.445067 245.425784 
L 202.756915 245.425784 
z
" style="fill:#ff0000;stroke:#ff0000;stroke-linejoin:miter;"/>
   </g>
   <g id="patch_131">
    <path clip-path="url(#p8f0ff4d874)" d="M 208.617105 198.576826 
L 213.305258 198.576826 
L 213.305258 250.98762 
L 208.617105 250.98762 
z
" style="fill:#ff0000;stroke:#ff0000;stroke-linejoin:miter;"/>
   </g>
   <g id="patch_132">
    <path clip-path="url(#p8f0ff4d874)" d="M 214.477296 198.576826 
L 219.165448 198.576826 
L 219.165448 255.501911 
L 214.477296 255.501911 
z
" style="fill:#ff0000;stroke:#ff0000;stroke-linejoin:miter;"/>
   </g>
   <g id="patch_133">
    <path clip-path="url(#p8f0ff4d874)" d="M 220.337486 198.576826 
L 225.025638 198.576826 
L 225.025638 254.858634 
L 220.337486 254.858634 
z
" style="fill:#ff0000;stroke:#ff0000;stroke-linejoin:miter;"/>
   </g>
   <g id="patch_134">
    <path clip-path="url(#p8f0ff4d874)" d="M 226.197676 198.576826 
L 230.885829 198.576826 
L 230.885829 251.8195 
L 226.197676 251.8195 
z
" style="fill:#ff0000;stroke:#ff0000;stroke-linejoin:miter;"/>
   </g>
   <g id="patch_135">
    <path clip-path="url(#p8f0ff4d874)" d="M 232.057867 198.576826 
L 236.746019 198.576826 
L 236.746019 255.491465 
L 232.057867 255.491465 
z
" style="fill:#ff0000;stroke:#ff0000;stroke-linejoin:miter;"/>
   </g>
   <g id="patch_136">
    <path clip-path="url(#p8f0ff4d874)" d="M 237.918057 198.576826 
L 242.606209 198.576826 
L 242.606209 258.899573 
L 237.918057 258.899573 
z
" style="fill:#ff0000;stroke:#ff0000;stroke-linejoin:miter;"/>
   </g>
   <g id="patch_137">
    <path clip-path="url(#p8f0ff4d874)" d="M 243.778247 198.576826 
L 248.4664 198.576826 
L 248.4664 263.615373 
L 243.778247 263.615373 
z
" style="fill:#ff0000;stroke:#ff0000;stroke-linejoin:miter;"/>
   </g>
   <g id="patch_138">
    <path clip-path="url(#p8f0ff4d874)" d="M 249.638438 198.576826 
L 254.32659 198.576826 
L 254.32659 264.125028 
L 249.638438 264.125028 
z
" style="fill:#ff0000;stroke:#ff0000;stroke-linejoin:miter;"/>
   </g>
   <g id="patch_139">
    <path clip-path="url(#p8f0ff4d874)" d="M 255.498628 198.576826 
L 260.18678 198.576826 
L 260.18678 268.388754 
L 255.498628 268.388754 
z
" style="fill:#ff0000;stroke:#ff0000;stroke-linejoin:miter;"/>
   </g>
   <g id="patch_140">
    <path clip-path="url(#p8f0ff4d874)" d="M 261.358819 198.576826 
L 266.046971 198.576826 
L 266.046971 270.738984 
L 261.358819 270.738984 
z
" style="fill:#ff0000;stroke:#ff0000;stroke-linejoin:miter;"/>
   </g>
   <g id="patch_141">
    <path clip-path="url(#p8f0ff4d874)" d="M 267.219009 198.576826 
L 271.907161 198.576826 
L 271.907161 274.603436 
L 267.219009 274.603436 
z
" style="fill:#ff0000;stroke:#ff0000;stroke-linejoin:miter;"/>
   </g>
   <g id="patch_142">
    <path clip-path="url(#p8f0ff4d874)" d="M 273.079199 198.576826 
L 277.767351 198.576826 
L 277.767351 280.745378 
L 273.079199 280.745378 
z
" style="fill:#ff0000;stroke:#ff0000;stroke-linejoin:miter;"/>
   </g>
   <g id="patch_143">
    <path clip-path="url(#p8f0ff4d874)" d="M 278.93939 198.576826 
L 283.627542 198.576826 
L 283.627542 282.016307 
L 278.93939 282.016307 
z
" style="fill:#ff0000;stroke:#ff0000;stroke-linejoin:miter;"/>
   </g>
   <g id="patch_144">
    <path clip-path="url(#p8f0ff4d874)" d="M 284.79958 198.576826 
L 289.487732 198.576826 
L 289.487732 282.082213 
L 284.79958 282.082213 
z
" style="fill:#ff0000;stroke:#ff0000;stroke-linejoin:miter;"/>
   </g>
   <g id="patch_145">
    <path clip-path="url(#p8f0ff4d874)" d="M 290.65977 198.576826 
L 295.347923 198.576826 
L 295.347923 283.173906 
L 290.65977 283.173906 
z
" style="fill:#ff0000;stroke:#ff0000;stroke-linejoin:miter;"/>
   </g>
   <g id="patch_146">
    <path clip-path="url(#p8f0ff4d874)" d="M 296.519961 198.576826 
L 301.208113 198.576826 
L 301.208113 286.867854 
L 296.519961 286.867854 
z
" style="fill:#ff0000;stroke:#ff0000;stroke-linejoin:miter;"/>
   </g>
   <g id="patch_147">
    <path clip-path="url(#p8f0ff4d874)" d="M 302.380151 198.576826 
L 307.068303 198.576826 
L 307.068303 292.554737 
L 302.380151 292.554737 
z
" style="fill:#ff0000;stroke:#ff0000;stroke-linejoin:miter;"/>
   </g>
   <g id="patch_148">
    <path clip-path="url(#p8f0ff4d874)" d="M 308.240341 198.576826 
L 312.928494 198.576826 
L 312.928494 295.488 
L 308.240341 295.488 
z
" style="fill:#ff0000;stroke:#ff0000;stroke-linejoin:miter;"/>
   </g>
   <g id="patch_149">
    <path clip-path="url(#p8f0ff4d874)" d="M 314.100532 198.576826 
L 318.788684 198.576826 
L 318.788684 295.210677 
L 314.100532 295.210677 
z
" style="fill:#ff0000;stroke:#ff0000;stroke-linejoin:miter;"/>
   </g>
   <g id="patch_150">
    <path clip-path="url(#p8f0ff4d874)" d="M 319.960722 198.576826 
L 324.648874 198.576826 
L 324.648874 294.918894 
L 319.960722 294.918894 
z
" style="fill:#ff0000;stroke:#ff0000;stroke-linejoin:miter;"/>
   </g>
   <g id="patch_151">
    <path clip-path="url(#p8f0ff4d874)" d="M 325.820912 198.576826 
L 330.509065 198.576826 
L 330.509065 287.151676 
L 325.820912 287.151676 
z
" style="fill:#ff0000;stroke:#ff0000;stroke-linejoin:miter;"/>
   </g>
   <g id="patch_152">
    <path clip-path="url(#p8f0ff4d874)" d="M 331.681103 198.576826 
L 336.369255 198.576826 
L 336.369255 278.799949 
L 331.681103 278.799949 
z
" style="fill:#ff0000;stroke:#ff0000;stroke-linejoin:miter;"/>
   </g>
   <g id="patch_153">
    <path clip-path="url(#p8f0ff4d874)" d="M 337.541293 198.576826 
L 342.229445 198.576826 
L 342.229445 279.654418 
L 337.541293 279.654418 
z
" style="fill:#ff0000;stroke:#ff0000;stroke-linejoin:miter;"/>
   </g>
   <g id="patch_154">
    <path clip-path="url(#p8f0ff4d874)" d="M 343.401483 198.576826 
L 348.089636 198.576826 
L 348.089636 275.41812 
L 343.401483 275.41812 
z
" style="fill:#ff0000;stroke:#ff0000;stroke-linejoin:miter;"/>
   </g>
   <g id="patch_155">
    <path clip-path="url(#p8f0ff4d874)" d="M 349.261674 198.576826 
L 353.949826 198.576826 
L 353.949826 265.403602 
L 349.261674 265.403602 
z
" style="fill:#ff0000;stroke:#ff0000;stroke-linejoin:miter;"/>
   </g>
   <g id="patch_156">
    <path clip-path="url(#p8f0ff4d874)" d="M 355.121864 198.576826 
L 359.810016 198.576826 
L 359.810016 260.547086 
L 355.121864 260.547086 
z
" style="fill:#ff0000;stroke:#ff0000;stroke-linejoin:miter;"/>
   </g>
   <g id="patch_157">
    <path clip-path="url(#p8f0ff4d874)" d="M 360.982054 198.576826 
L 365.670207 198.576826 
L 365.670207 249.724916 
L 360.982054 249.724916 
z
" style="fill:#ff0000;stroke:#ff0000;stroke-linejoin:miter;"/>
   </g>
   <g id="patch_158">
    <path clip-path="url(#p8f0ff4d874)" d="M 366.842245 198.576826 
L 371.530397 198.576826 
L 371.530397 245.84369 
L 366.842245 245.84369 
z
" style="fill:#ff0000;stroke:#ff0000;stroke-linejoin:miter;"/>
   </g>
   <g id="patch_159">
    <path clip-path="url(#p8f0ff4d874)" d="M 372.702435 198.576826 
L 377.390587 198.576826 
L 377.390587 249.613421 
L 372.702435 249.613421 
z
" style="fill:#ff0000;stroke:#ff0000;stroke-linejoin:miter;"/>
   </g>
   <g id="patch_160">
    <path clip-path="url(#p8f0ff4d874)" d="M 378.562626 198.576826 
L 383.250778 198.576826 
L 383.250778 246.137983 
L 378.562626 246.137983 
z
" style="fill:#ff0000;stroke:#ff0000;stroke-linejoin:miter;"/>
   </g>
   <g id="matplotlib.axis_1">
    <g id="xtick_1">
     <g id="line2d_1">
      <defs>
       <path d="M 0 0 
L 0 3.5 
" id="m6d2e479373" style="stroke:#000000;stroke-width:0.8;"/>
      </defs>
      <g>
       <use style="stroke:#000000;stroke-width:0.8;" x="105.477755" xlink:href="#m6d2e479373" y="307.584"/>
      </g>
     </g>
     <g id="text_1">
      <!-- 1970 -->
      <defs>
       <path d="M 12.40625 8.296875 
L 28.515625 8.296875 
L 28.515625 63.921875 
L 10.984375 60.40625 
L 10.984375 69.390625 
L 28.421875 72.90625 
L 38.28125 72.90625 
L 38.28125 8.296875 
L 54.390625 8.296875 
L 54.390625 0 
L 12.40625 0 
z
" id="DejaVuSans-31"/>
       <path d="M 10.984375 1.515625 
L 10.984375 10.5 
Q 14.703125 8.734375 18.5 7.8125 
Q 22.3125 6.890625 25.984375 6.890625 
Q 35.75 6.890625 40.890625 13.453125 
Q 46.046875 20.015625 46.78125 33.40625 
Q 43.953125 29.203125 39.59375 26.953125 
Q 35.25 24.703125 29.984375 24.703125 
Q 19.046875 24.703125 12.671875 31.3125 
Q 6.296875 37.9375 6.296875 49.421875 
Q 6.296875 60.640625 12.9375 67.421875 
Q 19.578125 74.21875 30.609375 74.21875 
Q 43.265625 74.21875 49.921875 64.515625 
Q 56.59375 54.828125 56.59375 36.375 
Q 56.59375 19.140625 48.40625 8.859375 
Q 40.234375 -1.421875 26.421875 -1.421875 
Q 22.703125 -1.421875 18.890625 -0.6875 
Q 15.09375 0.046875 10.984375 1.515625 
z
M 30.609375 32.421875 
Q 37.25 32.421875 41.125 36.953125 
Q 45.015625 41.5 45.015625 49.421875 
Q 45.015625 57.28125 41.125 61.84375 
Q 37.25 66.40625 30.609375 66.40625 
Q 23.96875 66.40625 20.09375 61.84375 
Q 16.21875 57.28125 16.21875 49.421875 
Q 16.21875 41.5 20.09375 36.953125 
Q 23.96875 32.421875 30.609375 32.421875 
z
" id="DejaVuSans-39"/>
       <path d="M 8.203125 72.90625 
L 55.078125 72.90625 
L 55.078125 68.703125 
L 28.609375 0 
L 18.3125 0 
L 43.21875 64.59375 
L 8.203125 64.59375 
z
" id="DejaVuSans-37"/>
       <path d="M 31.78125 66.40625 
Q 24.171875 66.40625 20.328125 58.90625 
Q 16.5 51.421875 16.5 36.375 
Q 16.5 21.390625 20.328125 13.890625 
Q 24.171875 6.390625 31.78125 6.390625 
Q 39.453125 6.390625 43.28125 13.890625 
Q 47.125 21.390625 47.125 36.375 
Q 47.125 51.421875 43.28125 58.90625 
Q 39.453125 66.40625 31.78125 66.40625 
z
M 31.78125 74.21875 
Q 44.046875 74.21875 50.515625 64.515625 
Q 56.984375 54.828125 56.984375 36.375 
Q 56.984375 17.96875 50.515625 8.265625 
Q 44.046875 -1.421875 31.78125 -1.421875 
Q 19.53125 -1.421875 13.0625 8.265625 
Q 6.59375 17.96875 6.59375 36.375 
Q 6.59375 54.828125 13.0625 64.515625 
Q 19.53125 74.21875 31.78125 74.21875 
z
" id="DejaVuSans-30"/>
      </defs>
      <g transform="translate(92.752755 322.182437)scale(0.1 -0.1)">
       <use xlink:href="#DejaVuSans-31"/>
       <use x="63.623047" xlink:href="#DejaVuSans-39"/>
       <use x="127.246094" xlink:href="#DejaVuSans-37"/>
       <use x="190.869141" xlink:href="#DejaVuSans-30"/>
      </g>
     </g>
    </g>
    <g id="xtick_2">
     <g id="line2d_2">
      <g>
       <use style="stroke:#000000;stroke-width:0.8;" x="164.079659" xlink:href="#m6d2e479373" y="307.584"/>
      </g>
     </g>
     <g id="text_2">
      <!-- 1980 -->
      <defs>
       <path d="M 31.78125 34.625 
Q 24.75 34.625 20.71875 30.859375 
Q 16.703125 27.09375 16.703125 20.515625 
Q 16.703125 13.921875 20.71875 10.15625 
Q 24.75 6.390625 31.78125 6.390625 
Q 38.8125 6.390625 42.859375 10.171875 
Q 46.921875 13.96875 46.921875 20.515625 
Q 46.921875 27.09375 42.890625 30.859375 
Q 38.875 34.625 31.78125 34.625 
z
M 21.921875 38.8125 
Q 15.578125 40.375 12.03125 44.71875 
Q 8.5 49.078125 8.5 55.328125 
Q 8.5 64.0625 14.71875 69.140625 
Q 20.953125 74.21875 31.78125 74.21875 
Q 42.671875 74.21875 48.875 69.140625 
Q 55.078125 64.0625 55.078125 55.328125 
Q 55.078125 49.078125 51.53125 44.71875 
Q 48 40.375 41.703125 38.8125 
Q 48.828125 37.15625 52.796875 32.3125 
Q 56.78125 27.484375 56.78125 20.515625 
Q 56.78125 9.90625 50.3125 4.234375 
Q 43.84375 -1.421875 31.78125 -1.421875 
Q 19.734375 -1.421875 13.25 4.234375 
Q 6.78125 9.90625 6.78125 20.515625 
Q 6.78125 27.484375 10.78125 32.3125 
Q 14.796875 37.15625 21.921875 38.8125 
z
M 18.3125 54.390625 
Q 18.3125 48.734375 21.84375 45.5625 
Q 25.390625 42.390625 31.78125 42.390625 
Q 38.140625 42.390625 41.71875 45.5625 
Q 45.3125 48.734375 45.3125 54.390625 
Q 45.3125 60.0625 41.71875 63.234375 
Q 38.140625 66.40625 31.78125 66.40625 
Q 25.390625 66.40625 21.84375 63.234375 
Q 18.3125 60.0625 18.3125 54.390625 
z
" id="DejaVuSans-38"/>
      </defs>
      <g transform="translate(151.354659 322.182437)scale(0.1 -0.1)">
       <use xlink:href="#DejaVuSans-31"/>
       <use x="63.623047" xlink:href="#DejaVuSans-39"/>
       <use x="127.246094" xlink:href="#DejaVuSans-38"/>
       <use x="190.869141" xlink:href="#DejaVuSans-30"/>
      </g>
     </g>
    </g>
    <g id="xtick_3">
     <g id="line2d_3">
      <g>
       <use style="stroke:#000000;stroke-width:0.8;" x="222.681562" xlink:href="#m6d2e479373" y="307.584"/>
      </g>
     </g>
     <g id="text_3">
      <!-- 1990 -->
      <g transform="translate(209.956562 322.182437)scale(0.1 -0.1)">
       <use xlink:href="#DejaVuSans-31"/>
       <use x="63.623047" xlink:href="#DejaVuSans-39"/>
       <use x="127.246094" xlink:href="#DejaVuSans-39"/>
       <use x="190.869141" xlink:href="#DejaVuSans-30"/>
      </g>
     </g>
    </g>
    <g id="xtick_4">
     <g id="line2d_4">
      <g>
       <use style="stroke:#000000;stroke-width:0.8;" x="281.283466" xlink:href="#m6d2e479373" y="307.584"/>
      </g>
     </g>
     <g id="text_4">
      <!-- 2000 -->
      <defs>
       <path d="M 19.1875 8.296875 
L 53.609375 8.296875 
L 53.609375 0 
L 7.328125 0 
L 7.328125 8.296875 
Q 12.9375 14.109375 22.625 23.890625 
Q 32.328125 33.6875 34.8125 36.53125 
Q 39.546875 41.84375 41.421875 45.53125 
Q 43.3125 49.21875 43.3125 52.78125 
Q 43.3125 58.59375 39.234375 62.25 
Q 35.15625 65.921875 28.609375 65.921875 
Q 23.96875 65.921875 18.8125 64.3125 
Q 13.671875 62.703125 7.8125 59.421875 
L 7.8125 69.390625 
Q 13.765625 71.78125 18.9375 73 
Q 24.125 74.21875 28.421875 74.21875 
Q 39.75 74.21875 46.484375 68.546875 
Q 53.21875 62.890625 53.21875 53.421875 
Q 53.21875 48.921875 51.53125 44.890625 
Q 49.859375 40.875 45.40625 35.40625 
Q 44.1875 33.984375 37.640625 27.21875 
Q 31.109375 20.453125 19.1875 8.296875 
z
" id="DejaVuSans-32"/>
      </defs>
      <g transform="translate(268.558466 322.182437)scale(0.1 -0.1)">
       <use xlink:href="#DejaVuSans-32"/>
       <use x="63.623047" xlink:href="#DejaVuSans-30"/>
       <use x="127.246094" xlink:href="#DejaVuSans-30"/>
       <use x="190.869141" xlink:href="#DejaVuSans-30"/>
      </g>
     </g>
    </g>
    <g id="xtick_5">
     <g id="line2d_5">
      <g>
       <use style="stroke:#000000;stroke-width:0.8;" x="339.885369" xlink:href="#m6d2e479373" y="307.584"/>
      </g>
     </g>
     <g id="text_5">
      <!-- 2010 -->
      <g transform="translate(327.160369 322.182437)scale(0.1 -0.1)">
       <use xlink:href="#DejaVuSans-32"/>
       <use x="63.623047" xlink:href="#DejaVuSans-30"/>
       <use x="127.246094" xlink:href="#DejaVuSans-31"/>
       <use x="190.869141" xlink:href="#DejaVuSans-30"/>
      </g>
     </g>
    </g>
    <g id="xtick_6">
     <g id="line2d_6">
      <g>
       <use style="stroke:#000000;stroke-width:0.8;" x="398.487273" xlink:href="#m6d2e479373" y="307.584"/>
      </g>
     </g>
     <g id="text_6">
      <!-- 2020 -->
      <g transform="translate(385.762273 322.182437)scale(0.1 -0.1)">
       <use xlink:href="#DejaVuSans-32"/>
       <use x="63.623047" xlink:href="#DejaVuSans-30"/>
       <use x="127.246094" xlink:href="#DejaVuSans-32"/>
       <use x="190.869141" xlink:href="#DejaVuSans-30"/>
      </g>
     </g>
    </g>
   </g>
   <g id="matplotlib.axis_2">
    <g id="ytick_1">
     <g id="line2d_7">
      <defs>
       <path d="M 0 0 
L -3.5 0 
" id="md10db1bcd7" style="stroke:#000000;stroke-width:0.8;"/>
      </defs>
      <g>
       <use style="stroke:#000000;stroke-width:0.8;" x="57.6" xlink:href="#md10db1bcd7" y="303.139639"/>
      </g>
     </g>
     <g id="text_7">
      <!-- −15000 -->
      <defs>
       <path d="M 10.59375 35.5 
L 73.1875 35.5 
L 73.1875 27.203125 
L 10.59375 27.203125 
z
" id="DejaVuSans-2212"/>
       <path d="M 10.796875 72.90625 
L 49.515625 72.90625 
L 49.515625 64.59375 
L 19.828125 64.59375 
L 19.828125 46.734375 
Q 21.96875 47.46875 24.109375 47.828125 
Q 26.265625 48.1875 28.421875 48.1875 
Q 40.625 48.1875 47.75 41.5 
Q 54.890625 34.8125 54.890625 23.390625 
Q 54.890625 11.625 47.5625 5.09375 
Q 40.234375 -1.421875 26.90625 -1.421875 
Q 22.3125 -1.421875 17.546875 -0.640625 
Q 12.796875 0.140625 7.71875 1.703125 
L 7.71875 11.625 
Q 12.109375 9.234375 16.796875 8.0625 
Q 21.484375 6.890625 26.703125 6.890625 
Q 35.15625 6.890625 40.078125 11.328125 
Q 45.015625 15.765625 45.015625 23.390625 
Q 45.015625 31 40.078125 35.4375 
Q 35.15625 39.890625 26.703125 39.890625 
Q 22.75 39.890625 18.8125 39.015625 
Q 14.890625 38.140625 10.796875 36.28125 
z
" id="DejaVuSans-35"/>
      </defs>
      <g transform="translate(10.407812 306.938858)scale(0.1 -0.1)">
       <use xlink:href="#DejaVuSans-2212"/>
       <use x="83.789062" xlink:href="#DejaVuSans-31"/>
       <use x="147.412109" xlink:href="#DejaVuSans-35"/>
       <use x="211.035156" xlink:href="#DejaVuSans-30"/>
       <use x="274.658203" xlink:href="#DejaVuSans-30"/>
       <use x="338.28125" xlink:href="#DejaVuSans-30"/>
      </g>
     </g>
    </g>
    <g id="ytick_2">
     <g id="line2d_8">
      <g>
       <use style="stroke:#000000;stroke-width:0.8;" x="57.6" xlink:href="#md10db1bcd7" y="268.285368"/>
      </g>
     </g>
     <g id="text_8">
      <!-- −10000 -->
      <g transform="translate(10.407812 272.084587)scale(0.1 -0.1)">
       <use xlink:href="#DejaVuSans-2212"/>
       <use x="83.789062" xlink:href="#DejaVuSans-31"/>
       <use x="147.412109" xlink:href="#DejaVuSans-30"/>
       <use x="211.035156" xlink:href="#DejaVuSans-30"/>
       <use x="274.658203" xlink:href="#DejaVuSans-30"/>
       <use x="338.28125" xlink:href="#DejaVuSans-30"/>
      </g>
     </g>
    </g>
    <g id="ytick_3">
     <g id="line2d_9">
      <g>
       <use style="stroke:#000000;stroke-width:0.8;" x="57.6" xlink:href="#md10db1bcd7" y="233.431097"/>
      </g>
     </g>
     <g id="text_9">
      <!-- −5000 -->
      <g transform="translate(16.770313 237.230316)scale(0.1 -0.1)">
       <use xlink:href="#DejaVuSans-2212"/>
       <use x="83.789062" xlink:href="#DejaVuSans-35"/>
       <use x="147.412109" xlink:href="#DejaVuSans-30"/>
       <use x="211.035156" xlink:href="#DejaVuSans-30"/>
       <use x="274.658203" xlink:href="#DejaVuSans-30"/>
      </g>
     </g>
    </g>
    <g id="ytick_4">
     <g id="line2d_10">
      <g>
       <use style="stroke:#000000;stroke-width:0.8;" x="57.6" xlink:href="#md10db1bcd7" y="198.576826"/>
      </g>
     </g>
     <g id="text_10">
      <!-- 0 -->
      <g transform="translate(44.2375 202.376045)scale(0.1 -0.1)">
       <use xlink:href="#DejaVuSans-30"/>
      </g>
     </g>
    </g>
    <g id="ytick_5">
     <g id="line2d_11">
      <g>
       <use style="stroke:#000000;stroke-width:0.8;" x="57.6" xlink:href="#md10db1bcd7" y="163.722556"/>
      </g>
     </g>
     <g id="text_11">
      <!-- 5000 -->
      <g transform="translate(25.15 167.521774)scale(0.1 -0.1)">
       <use xlink:href="#DejaVuSans-35"/>
       <use x="63.623047" xlink:href="#DejaVuSans-30"/>
       <use x="127.246094" xlink:href="#DejaVuSans-30"/>
       <use x="190.869141" xlink:href="#DejaVuSans-30"/>
      </g>
     </g>
    </g>
    <g id="ytick_6">
     <g id="line2d_12">
      <g>
       <use style="stroke:#000000;stroke-width:0.8;" x="57.6" xlink:href="#md10db1bcd7" y="128.868285"/>
      </g>
     </g>
     <g id="text_12">
      <!-- 10000 -->
      <g transform="translate(18.7875 132.667504)scale(0.1 -0.1)">
       <use xlink:href="#DejaVuSans-31"/>
       <use x="63.623047" xlink:href="#DejaVuSans-30"/>
       <use x="127.246094" xlink:href="#DejaVuSans-30"/>
       <use x="190.869141" xlink:href="#DejaVuSans-30"/>
       <use x="254.492188" xlink:href="#DejaVuSans-30"/>
      </g>
     </g>
    </g>
    <g id="ytick_7">
     <g id="line2d_13">
      <g>
       <use style="stroke:#000000;stroke-width:0.8;" x="57.6" xlink:href="#md10db1bcd7" y="94.014014"/>
      </g>
     </g>
     <g id="text_13">
      <!-- 15000 -->
      <g transform="translate(18.7875 97.813233)scale(0.1 -0.1)">
       <use xlink:href="#DejaVuSans-31"/>
       <use x="63.623047" xlink:href="#DejaVuSans-35"/>
       <use x="127.246094" xlink:href="#DejaVuSans-30"/>
       <use x="190.869141" xlink:href="#DejaVuSans-30"/>
       <use x="254.492188" xlink:href="#DejaVuSans-30"/>
      </g>
     </g>
    </g>
    <g id="ytick_8">
     <g id="line2d_14">
      <g>
       <use style="stroke:#000000;stroke-width:0.8;" x="57.6" xlink:href="#md10db1bcd7" y="59.159743"/>
      </g>
     </g>
     <g id="text_14">
      <!-- 20000 -->
      <g transform="translate(18.7875 62.958962)scale(0.1 -0.1)">
       <use xlink:href="#DejaVuSans-32"/>
       <use x="63.623047" xlink:href="#DejaVuSans-30"/>
       <use x="127.246094" xlink:href="#DejaVuSans-30"/>
       <use x="190.869141" xlink:href="#DejaVuSans-30"/>
       <use x="254.492188" xlink:href="#DejaVuSans-30"/>
      </g>
     </g>
    </g>
    <g id="text_15">
     <!-- Thousands barels a day -->
     <defs>
      <path d="M -0.296875 72.90625 
L 61.375 72.90625 
L 61.375 64.59375 
L 35.5 64.59375 
L 35.5 0 
L 25.59375 0 
L 25.59375 64.59375 
L -0.296875 64.59375 
z
" id="DejaVuSans-54"/>
      <path d="M 54.890625 33.015625 
L 54.890625 0 
L 45.90625 0 
L 45.90625 32.71875 
Q 45.90625 40.484375 42.875 44.328125 
Q 39.84375 48.1875 33.796875 48.1875 
Q 26.515625 48.1875 22.3125 43.546875 
Q 18.109375 38.921875 18.109375 30.90625 
L 18.109375 0 
L 9.078125 0 
L 9.078125 75.984375 
L 18.109375 75.984375 
L 18.109375 46.1875 
Q 21.34375 51.125 25.703125 53.5625 
Q 30.078125 56 35.796875 56 
Q 45.21875 56 50.046875 50.171875 
Q 54.890625 44.34375 54.890625 33.015625 
z
" id="DejaVuSans-68"/>
      <path d="M 30.609375 48.390625 
Q 23.390625 48.390625 19.1875 42.75 
Q 14.984375 37.109375 14.984375 27.296875 
Q 14.984375 17.484375 19.15625 11.84375 
Q 23.34375 6.203125 30.609375 6.203125 
Q 37.796875 6.203125 41.984375 11.859375 
Q 46.1875 17.53125 46.1875 27.296875 
Q 46.1875 37.015625 41.984375 42.703125 
Q 37.796875 48.390625 30.609375 48.390625 
z
M 30.609375 56 
Q 42.328125 56 49.015625 48.375 
Q 55.71875 40.765625 55.71875 27.296875 
Q 55.71875 13.875 49.015625 6.21875 
Q 42.328125 -1.421875 30.609375 -1.421875 
Q 18.84375 -1.421875 12.171875 6.21875 
Q 5.515625 13.875 5.515625 27.296875 
Q 5.515625 40.765625 12.171875 48.375 
Q 18.84375 56 30.609375 56 
z
" id="DejaVuSans-6f"/>
      <path d="M 8.5 21.578125 
L 8.5 54.6875 
L 17.484375 54.6875 
L 17.484375 21.921875 
Q 17.484375 14.15625 20.5 10.265625 
Q 23.53125 6.390625 29.59375 6.390625 
Q 36.859375 6.390625 41.078125 11.03125 
Q 45.3125 15.671875 45.3125 23.6875 
L 45.3125 54.6875 
L 54.296875 54.6875 
L 54.296875 0 
L 45.3125 0 
L 45.3125 8.40625 
Q 42.046875 3.421875 37.71875 1 
Q 33.40625 -1.421875 27.6875 -1.421875 
Q 18.265625 -1.421875 13.375 4.4375 
Q 8.5 10.296875 8.5 21.578125 
z
M 31.109375 56 
z
" id="DejaVuSans-75"/>
      <path d="M 44.28125 53.078125 
L 44.28125 44.578125 
Q 40.484375 46.53125 36.375 47.5 
Q 32.28125 48.484375 27.875 48.484375 
Q 21.1875 48.484375 17.84375 46.4375 
Q 14.5 44.390625 14.5 40.28125 
Q 14.5 37.15625 16.890625 35.375 
Q 19.28125 33.59375 26.515625 31.984375 
L 29.59375 31.296875 
Q 39.15625 29.25 43.1875 25.515625 
Q 47.21875 21.78125 47.21875 15.09375 
Q 47.21875 7.46875 41.1875 3.015625 
Q 35.15625 -1.421875 24.609375 -1.421875 
Q 20.21875 -1.421875 15.453125 -0.5625 
Q 10.6875 0.296875 5.421875 2 
L 5.421875 11.28125 
Q 10.40625 8.6875 15.234375 7.390625 
Q 20.0625 6.109375 24.8125 6.109375 
Q 31.15625 6.109375 34.5625 8.28125 
Q 37.984375 10.453125 37.984375 14.40625 
Q 37.984375 18.0625 35.515625 20.015625 
Q 33.0625 21.96875 24.703125 23.78125 
L 21.578125 24.515625 
Q 13.234375 26.265625 9.515625 29.90625 
Q 5.8125 33.546875 5.8125 39.890625 
Q 5.8125 47.609375 11.28125 51.796875 
Q 16.75 56 26.8125 56 
Q 31.78125 56 36.171875 55.265625 
Q 40.578125 54.546875 44.28125 53.078125 
z
" id="DejaVuSans-73"/>
      <path d="M 34.28125 27.484375 
Q 23.390625 27.484375 19.1875 25 
Q 14.984375 22.515625 14.984375 16.5 
Q 14.984375 11.71875 18.140625 8.90625 
Q 21.296875 6.109375 26.703125 6.109375 
Q 34.1875 6.109375 38.703125 11.40625 
Q 43.21875 16.703125 43.21875 25.484375 
L 43.21875 27.484375 
z
M 52.203125 31.203125 
L 52.203125 0 
L 43.21875 0 
L 43.21875 8.296875 
Q 40.140625 3.328125 35.546875 0.953125 
Q 30.953125 -1.421875 24.3125 -1.421875 
Q 15.921875 -1.421875 10.953125 3.296875 
Q 6 8.015625 6 15.921875 
Q 6 25.140625 12.171875 29.828125 
Q 18.359375 34.515625 30.609375 34.515625 
L 43.21875 34.515625 
L 43.21875 35.40625 
Q 43.21875 41.609375 39.140625 45 
Q 35.0625 48.390625 27.6875 48.390625 
Q 23 48.390625 18.546875 47.265625 
Q 14.109375 46.140625 10.015625 43.890625 
L 10.015625 52.203125 
Q 14.9375 54.109375 19.578125 55.046875 
Q 24.21875 56 28.609375 56 
Q 40.484375 56 46.34375 49.84375 
Q 52.203125 43.703125 52.203125 31.203125 
z
" id="DejaVuSans-61"/>
      <path d="M 54.890625 33.015625 
L 54.890625 0 
L 45.90625 0 
L 45.90625 32.71875 
Q 45.90625 40.484375 42.875 44.328125 
Q 39.84375 48.1875 33.796875 48.1875 
Q 26.515625 48.1875 22.3125 43.546875 
Q 18.109375 38.921875 18.109375 30.90625 
L 18.109375 0 
L 9.078125 0 
L 9.078125 54.6875 
L 18.109375 54.6875 
L 18.109375 46.1875 
Q 21.34375 51.125 25.703125 53.5625 
Q 30.078125 56 35.796875 56 
Q 45.21875 56 50.046875 50.171875 
Q 54.890625 44.34375 54.890625 33.015625 
z
" id="DejaVuSans-6e"/>
      <path d="M 45.40625 46.390625 
L 45.40625 75.984375 
L 54.390625 75.984375 
L 54.390625 0 
L 45.40625 0 
L 45.40625 8.203125 
Q 42.578125 3.328125 38.25 0.953125 
Q 33.9375 -1.421875 27.875 -1.421875 
Q 17.96875 -1.421875 11.734375 6.484375 
Q 5.515625 14.40625 5.515625 27.296875 
Q 5.515625 40.1875 11.734375 48.09375 
Q 17.96875 56 27.875 56 
Q 33.9375 56 38.25 53.625 
Q 42.578125 51.265625 45.40625 46.390625 
z
M 14.796875 27.296875 
Q 14.796875 17.390625 18.875 11.75 
Q 22.953125 6.109375 30.078125 6.109375 
Q 37.203125 6.109375 41.296875 11.75 
Q 45.40625 17.390625 45.40625 27.296875 
Q 45.40625 37.203125 41.296875 42.84375 
Q 37.203125 48.484375 30.078125 48.484375 
Q 22.953125 48.484375 18.875 42.84375 
Q 14.796875 37.203125 14.796875 27.296875 
z
" id="DejaVuSans-64"/>
      <path id="DejaVuSans-20"/>
      <path d="M 48.6875 27.296875 
Q 48.6875 37.203125 44.609375 42.84375 
Q 40.53125 48.484375 33.40625 48.484375 
Q 26.265625 48.484375 22.1875 42.84375 
Q 18.109375 37.203125 18.109375 27.296875 
Q 18.109375 17.390625 22.1875 11.75 
Q 26.265625 6.109375 33.40625 6.109375 
Q 40.53125 6.109375 44.609375 11.75 
Q 48.6875 17.390625 48.6875 27.296875 
z
M 18.109375 46.390625 
Q 20.953125 51.265625 25.265625 53.625 
Q 29.59375 56 35.59375 56 
Q 45.5625 56 51.78125 48.09375 
Q 58.015625 40.1875 58.015625 27.296875 
Q 58.015625 14.40625 51.78125 6.484375 
Q 45.5625 -1.421875 35.59375 -1.421875 
Q 29.59375 -1.421875 25.265625 0.953125 
Q 20.953125 3.328125 18.109375 8.203125 
L 18.109375 0 
L 9.078125 0 
L 9.078125 75.984375 
L 18.109375 75.984375 
z
" id="DejaVuSans-62"/>
      <path d="M 41.109375 46.296875 
Q 39.59375 47.171875 37.8125 47.578125 
Q 36.03125 48 33.890625 48 
Q 26.265625 48 22.1875 43.046875 
Q 18.109375 38.09375 18.109375 28.8125 
L 18.109375 0 
L 9.078125 0 
L 9.078125 54.6875 
L 18.109375 54.6875 
L 18.109375 46.1875 
Q 20.953125 51.171875 25.484375 53.578125 
Q 30.03125 56 36.53125 56 
Q 37.453125 56 38.578125 55.875 
Q 39.703125 55.765625 41.0625 55.515625 
z
" id="DejaVuSans-72"/>
      <path d="M 56.203125 29.59375 
L 56.203125 25.203125 
L 14.890625 25.203125 
Q 15.484375 15.921875 20.484375 11.0625 
Q 25.484375 6.203125 34.421875 6.203125 
Q 39.59375 6.203125 44.453125 7.46875 
Q 49.3125 8.734375 54.109375 11.28125 
L 54.109375 2.78125 
Q 49.265625 0.734375 44.1875 -0.34375 
Q 39.109375 -1.421875 33.890625 -1.421875 
Q 20.796875 -1.421875 13.15625 6.1875 
Q 5.515625 13.8125 5.515625 26.8125 
Q 5.515625 40.234375 12.765625 48.109375 
Q 20.015625 56 32.328125 56 
Q 43.359375 56 49.78125 48.890625 
Q 56.203125 41.796875 56.203125 29.59375 
z
M 47.21875 32.234375 
Q 47.125 39.59375 43.09375 43.984375 
Q 39.0625 48.390625 32.421875 48.390625 
Q 24.90625 48.390625 20.390625 44.140625 
Q 15.875 39.890625 15.1875 32.171875 
z
" id="DejaVuSans-65"/>
      <path d="M 9.421875 75.984375 
L 18.40625 75.984375 
L 18.40625 0 
L 9.421875 0 
z
" id="DejaVuSans-6c"/>
      <path d="M 32.171875 -5.078125 
Q 28.375 -14.84375 24.75 -17.8125 
Q 21.140625 -20.796875 15.09375 -20.796875 
L 7.90625 -20.796875 
L 7.90625 -13.28125 
L 13.1875 -13.28125 
Q 16.890625 -13.28125 18.9375 -11.515625 
Q 21 -9.765625 23.484375 -3.21875 
L 25.09375 0.875 
L 2.984375 54.6875 
L 12.5 54.6875 
L 29.59375 11.921875 
L 46.6875 54.6875 
L 56.203125 54.6875 
z
" id="DejaVuSans-79"/>
     </defs>
     <g transform="translate(3.080312 269.66175)rotate(-90)scale(0.16 -0.16)">
      <use xlink:href="#DejaVuSans-54"/>
      <use x="61.083984" xlink:href="#DejaVuSans-68"/>
      <use x="124.462891" xlink:href="#DejaVuSans-6f"/>
      <use x="185.644531" xlink:href="#DejaVuSans-75"/>
      <use x="249.023438" xlink:href="#DejaVuSans-73"/>
      <use x="301.123047" xlink:href="#DejaVuSans-61"/>
      <use x="362.402344" xlink:href="#DejaVuSans-6e"/>
      <use x="425.78125" xlink:href="#DejaVuSans-64"/>
      <use x="489.257812" xlink:href="#DejaVuSans-73"/>
      <use x="541.357422" xlink:href="#DejaVuSans-20"/>
      <use x="573.144531" xlink:href="#DejaVuSans-62"/>
      <use x="636.621094" xlink:href="#DejaVuSans-61"/>
      <use x="697.900391" xlink:href="#DejaVuSans-72"/>
      <use x="738.982422" xlink:href="#DejaVuSans-65"/>
      <use x="800.505859" xlink:href="#DejaVuSans-6c"/>
      <use x="828.289062" xlink:href="#DejaVuSans-73"/>
      <use x="880.388672" xlink:href="#DejaVuSans-20"/>
      <use x="912.175781" xlink:href="#DejaVuSans-61"/>
      <use x="973.455078" xlink:href="#DejaVuSans-20"/>
      <use x="1005.242188" xlink:href="#DejaVuSans-64"/>
      <use x="1068.71875" xlink:href="#DejaVuSans-61"/>
      <use x="1129.998047" xlink:href="#DejaVuSans-79"/>
     </g>
    </g>
   </g>
   <g id="line2d_15">
    <path clip-path="url(#p8f0ff4d874)" d="M 76.176803 118.257336 
L 76.176803 118.257336 
L 82.036994 118.257336 
L 82.036994 114.22707 
L 87.897184 114.22707 
L 87.897184 110.974935 
L 93.757374 110.974935 
L 93.757374 105.135673 
L 99.617565 105.135673 
L 99.617565 99.918431 
L 105.477755 99.918431 
L 105.477755 96.036187 
L 111.337946 96.036187 
L 111.337946 92.4612 
L 117.198136 92.4612 
L 117.198136 84.388562 
L 123.058326 84.388562 
L 123.058326 77.856043 
L 128.918517 77.856043 
L 128.918517 82.647004 
L 134.778707 82.647004 
L 134.778707 84.717956 
L 140.638897 84.717956 
L 140.638897 76.860523 
L 146.499088 76.860523 
L 146.499088 70.010806 
L 152.359278 70.010806 
L 152.359278 67.831899 
L 158.219468 67.831899 
L 158.219468 70.046745 
L 164.079659 70.046745 
L 164.079659 79.637639 
L 169.939849 79.637639 
L 169.939849 86.627032 
L 175.800039 86.627032 
L 175.800039 91.957872 
L 181.66023 91.957872 
L 181.66023 92.379068 
L 187.52042 92.379068 
L 187.52042 88.957643 
L 193.38061 88.957643 
L 193.38061 88.952261 
L 199.240801 88.952261 
L 199.240801 85.085091 
L 205.100991 85.085091 
L 205.100991 82.409848 
L 210.961181 82.409848 
L 210.961181 78.09781 
L 216.821372 78.09781 
L 216.821372 77.805152 
L 222.681562 77.805152 
L 222.681562 80.154685 
L 228.541753 80.154685 
L 228.541753 82.069852 
L 234.401943 82.069852 
L 234.401943 79.843782 
L 240.262133 79.843782 
L 240.262133 78.425574 
L 246.122324 78.425574 
L 246.122324 75.062719 
L 251.982514 75.062719 
L 251.982514 75.019693 
L 257.842704 75.019693 
L 257.842704 70.944961 
L 263.702895 70.944961 
L 263.702895 68.77552 
L 269.563085 68.77552 
L 269.563085 66.707868 
L 275.423275 66.707868 
L 275.423275 62.513409 
L 281.283466 62.513409 
L 281.283466 61.241462 
L 287.143656 61.241462 
L 287.143656 61.609164 
L 293.003846 61.609164 
L 293.003846 60.82644 
L 298.864037 60.82644 
L 298.864037 58.929425 
L 304.724227 58.929425 
L 304.724227 54.060258 
L 310.584417 54.060258 
L 310.584417 53.568 
L 316.444608 53.568 
L 316.444608 54.367844 
L 322.304798 54.367844 
L 322.304798 54.416888 
L 328.164989 54.416888 
L 328.164989 62.711995 
L 334.025179 62.711995 
L 334.025179 67.724154 
L 339.885369 67.724154 
L 339.885369 64.874946 
L 345.74556 64.874946 
L 345.74556 66.952642 
L 351.60575 66.952642 
L 351.60575 69.684228 
L 357.46594 69.684228 
L 357.46594 66.401582 
L 363.326131 66.401582 
L 363.326131 65.39438 
L 369.186321 65.39438 
L 369.186321 62.429704 
L 375.046511 62.429704 
L 375.046511 61.340001 
L 380.906702 61.340001 
L 380.906702 59.997276 
L 386.766892 59.997276 
" style="fill:none;stroke:#000000;stroke-linecap:square;stroke-width:2;"/>
   </g>
   <g id="line2d_16">
    <path clip-path="url(#p8f0ff4d874)" d="M 76.176803 198.576826 
L 398.487273 198.576826 
" style="fill:none;stroke:#000000;stroke-linecap:square;stroke-width:1.5;"/>
   </g>
   <g id="text_16">
    <!-- US (Oil) -->
    <defs>
     <path d="M 8.6875 72.90625 
L 18.609375 72.90625 
L 18.609375 28.609375 
Q 18.609375 16.890625 22.84375 11.734375 
Q 27.09375 6.59375 36.625 6.59375 
Q 46.09375 6.59375 50.34375 11.734375 
Q 54.59375 16.890625 54.59375 28.609375 
L 54.59375 72.90625 
L 64.5 72.90625 
L 64.5 27.390625 
Q 64.5 13.140625 57.4375 5.859375 
Q 50.390625 -1.421875 36.625 -1.421875 
Q 22.796875 -1.421875 15.734375 5.859375 
Q 8.6875 13.140625 8.6875 27.390625 
z
" id="DejaVuSans-55"/>
     <path d="M 53.515625 70.515625 
L 53.515625 60.890625 
Q 47.90625 63.578125 42.921875 64.890625 
Q 37.9375 66.21875 33.296875 66.21875 
Q 25.25 66.21875 20.875 63.09375 
Q 16.5 59.96875 16.5 54.203125 
Q 16.5 49.359375 19.40625 46.890625 
Q 22.3125 44.4375 30.421875 42.921875 
L 36.375 41.703125 
Q 47.40625 39.59375 52.65625 34.296875 
Q 57.90625 29 57.90625 20.125 
Q 57.90625 9.515625 50.796875 4.046875 
Q 43.703125 -1.421875 29.984375 -1.421875 
Q 24.8125 -1.421875 18.96875 -0.25 
Q 13.140625 0.921875 6.890625 3.21875 
L 6.890625 13.375 
Q 12.890625 10.015625 18.65625 8.296875 
Q 24.421875 6.59375 29.984375 6.59375 
Q 38.421875 6.59375 43.015625 9.90625 
Q 47.609375 13.234375 47.609375 19.390625 
Q 47.609375 24.75 44.3125 27.78125 
Q 41.015625 30.8125 33.5 32.328125 
L 27.484375 33.5 
Q 16.453125 35.6875 11.515625 40.375 
Q 6.59375 45.0625 6.59375 53.421875 
Q 6.59375 63.09375 13.40625 68.65625 
Q 20.21875 74.21875 32.171875 74.21875 
Q 37.3125 74.21875 42.625 73.28125 
Q 47.953125 72.359375 53.515625 70.515625 
z
" id="DejaVuSans-53"/>
     <path d="M 31 75.875 
Q 24.46875 64.65625 21.28125 53.65625 
Q 18.109375 42.671875 18.109375 31.390625 
Q 18.109375 20.125 21.3125 9.0625 
Q 24.515625 -2 31 -13.1875 
L 23.1875 -13.1875 
Q 15.875 -1.703125 12.234375 9.375 
Q 8.59375 20.453125 8.59375 31.390625 
Q 8.59375 42.28125 12.203125 53.3125 
Q 15.828125 64.359375 23.1875 75.875 
z
" id="DejaVuSans-28"/>
     <path d="M 39.40625 66.21875 
Q 28.65625 66.21875 22.328125 58.203125 
Q 16.015625 50.203125 16.015625 36.375 
Q 16.015625 22.609375 22.328125 14.59375 
Q 28.65625 6.59375 39.40625 6.59375 
Q 50.140625 6.59375 56.421875 14.59375 
Q 62.703125 22.609375 62.703125 36.375 
Q 62.703125 50.203125 56.421875 58.203125 
Q 50.140625 66.21875 39.40625 66.21875 
z
M 39.40625 74.21875 
Q 54.734375 74.21875 63.90625 63.9375 
Q 73.09375 53.65625 73.09375 36.375 
Q 73.09375 19.140625 63.90625 8.859375 
Q 54.734375 -1.421875 39.40625 -1.421875 
Q 24.03125 -1.421875 14.8125 8.828125 
Q 5.609375 19.09375 5.609375 36.375 
Q 5.609375 53.65625 14.8125 63.9375 
Q 24.03125 74.21875 39.40625 74.21875 
z
" id="DejaVuSans-4f"/>
     <path d="M 9.421875 54.6875 
L 18.40625 54.6875 
L 18.40625 0 
L 9.421875 0 
z
M 9.421875 75.984375 
L 18.40625 75.984375 
L 18.40625 64.59375 
L 9.421875 64.59375 
z
" id="DejaVuSans-69"/>
     <path d="M 8.015625 75.875 
L 15.828125 75.875 
Q 23.140625 64.359375 26.78125 53.3125 
Q 30.421875 42.28125 30.421875 31.390625 
Q 30.421875 20.453125 26.78125 9.375 
Q 23.140625 -1.703125 15.828125 -13.1875 
L 8.015625 -13.1875 
Q 14.5 -2 17.703125 9.0625 
Q 20.90625 20.125 20.90625 31.390625 
Q 20.90625 42.671875 17.703125 53.65625 
Q 14.5 64.65625 8.015625 75.875 
z
" id="DejaVuSans-29"/>
    </defs>
    <g transform="translate(194.275781 35.472)scale(0.22 -0.22)">
     <use xlink:href="#DejaVuSans-55"/>
     <use x="73.193359" xlink:href="#DejaVuSans-53"/>
     <use x="136.669922" xlink:href="#DejaVuSans-20"/>
     <use x="168.457031" xlink:href="#DejaVuSans-28"/>
     <use x="207.470703" xlink:href="#DejaVuSans-4f"/>
     <use x="286.181641" xlink:href="#DejaVuSans-69"/>
     <use x="313.964844" xlink:href="#DejaVuSans-6c"/>
     <use x="341.748047" xlink:href="#DejaVuSans-29"/>
    </g>
   </g>
   <g id="legend_1">
    <g id="patch_161">
     <path d="M 64.6 302.584 
L 177.951562 302.584 
Q 179.951562 302.584 179.951562 300.584 
L 179.951562 242.8715 
Q 179.951562 240.8715 177.951562 240.8715 
L 64.6 240.8715 
Q 62.6 240.8715 62.6 242.8715 
L 62.6 300.584 
Q 62.6 302.584 64.6 302.584 
z
" style="fill:#ffffff;opacity:0.5;stroke:#d3d3d3;stroke-linejoin:miter;"/>
    </g>
    <g id="patch_162">
     <path d="M 66.6 252.469937 
L 86.6 252.469937 
L 86.6 245.469937 
L 66.6 245.469937 
z
" style="fill:#a9a9a9;stroke:#a9a9a9;stroke-linejoin:miter;"/>
    </g>
    <g id="text_17">
     <!-- Oil production -->
     <defs>
      <path d="M 18.109375 8.203125 
L 18.109375 -20.796875 
L 9.078125 -20.796875 
L 9.078125 54.6875 
L 18.109375 54.6875 
L 18.109375 46.390625 
Q 20.953125 51.265625 25.265625 53.625 
Q 29.59375 56 35.59375 56 
Q 45.5625 56 51.78125 48.09375 
Q 58.015625 40.1875 58.015625 27.296875 
Q 58.015625 14.40625 51.78125 6.484375 
Q 45.5625 -1.421875 35.59375 -1.421875 
Q 29.59375 -1.421875 25.265625 0.953125 
Q 20.953125 3.328125 18.109375 8.203125 
z
M 48.6875 27.296875 
Q 48.6875 37.203125 44.609375 42.84375 
Q 40.53125 48.484375 33.40625 48.484375 
Q 26.265625 48.484375 22.1875 42.84375 
Q 18.109375 37.203125 18.109375 27.296875 
Q 18.109375 17.390625 22.1875 11.75 
Q 26.265625 6.109375 33.40625 6.109375 
Q 40.53125 6.109375 44.609375 11.75 
Q 48.6875 17.390625 48.6875 27.296875 
z
" id="DejaVuSans-70"/>
      <path d="M 48.78125 52.59375 
L 48.78125 44.1875 
Q 44.96875 46.296875 41.140625 47.34375 
Q 37.3125 48.390625 33.40625 48.390625 
Q 24.65625 48.390625 19.8125 42.84375 
Q 14.984375 37.3125 14.984375 27.296875 
Q 14.984375 17.28125 19.8125 11.734375 
Q 24.65625 6.203125 33.40625 6.203125 
Q 37.3125 6.203125 41.140625 7.25 
Q 44.96875 8.296875 48.78125 10.40625 
L 48.78125 2.09375 
Q 45.015625 0.34375 40.984375 -0.53125 
Q 36.96875 -1.421875 32.421875 -1.421875 
Q 20.0625 -1.421875 12.78125 6.34375 
Q 5.515625 14.109375 5.515625 27.296875 
Q 5.515625 40.671875 12.859375 48.328125 
Q 20.21875 56 33.015625 56 
Q 37.15625 56 41.109375 55.140625 
Q 45.0625 54.296875 48.78125 52.59375 
z
" id="DejaVuSans-63"/>
      <path d="M 18.3125 70.21875 
L 18.3125 54.6875 
L 36.8125 54.6875 
L 36.8125 47.703125 
L 18.3125 47.703125 
L 18.3125 18.015625 
Q 18.3125 11.328125 20.140625 9.421875 
Q 21.96875 7.515625 27.59375 7.515625 
L 36.8125 7.515625 
L 36.8125 0 
L 27.59375 0 
Q 17.1875 0 13.234375 3.875 
Q 9.28125 7.765625 9.28125 18.015625 
L 9.28125 47.703125 
L 2.6875 47.703125 
L 2.6875 54.6875 
L 9.28125 54.6875 
L 9.28125 70.21875 
z
" id="DejaVuSans-74"/>
     </defs>
     <g transform="translate(94.6 252.469937)scale(0.1 -0.1)">
      <use xlink:href="#DejaVuSans-4f"/>
      <use x="78.710938" xlink:href="#DejaVuSans-69"/>
      <use x="106.494141" xlink:href="#DejaVuSans-6c"/>
      <use x="134.277344" xlink:href="#DejaVuSans-20"/>
      <use x="166.064453" xlink:href="#DejaVuSans-70"/>
      <use x="229.541016" xlink:href="#DejaVuSans-72"/>
      <use x="270.623047" xlink:href="#DejaVuSans-6f"/>
      <use x="331.804688" xlink:href="#DejaVuSans-64"/>
      <use x="395.28125" xlink:href="#DejaVuSans-75"/>
      <use x="458.660156" xlink:href="#DejaVuSans-63"/>
      <use x="513.640625" xlink:href="#DejaVuSans-74"/>
      <use x="552.849609" xlink:href="#DejaVuSans-69"/>
      <use x="580.632812" xlink:href="#DejaVuSans-6f"/>
      <use x="641.814453" xlink:href="#DejaVuSans-6e"/>
     </g>
    </g>
    <g id="line2d_17">
     <path d="M 66.6 263.648062 
L 86.6 263.648062 
" style="fill:none;stroke:#000000;stroke-linecap:square;stroke-width:2;"/>
    </g>
    <g id="line2d_18"/>
    <g id="text_18">
     <!-- Oil consumption -->
     <defs>
      <path d="M 52 44.1875 
Q 55.375 50.25 60.0625 53.125 
Q 64.75 56 71.09375 56 
Q 79.640625 56 84.28125 50.015625 
Q 88.921875 44.046875 88.921875 33.015625 
L 88.921875 0 
L 79.890625 0 
L 79.890625 32.71875 
Q 79.890625 40.578125 77.09375 44.375 
Q 74.3125 48.1875 68.609375 48.1875 
Q 61.625 48.1875 57.5625 43.546875 
Q 53.515625 38.921875 53.515625 30.90625 
L 53.515625 0 
L 44.484375 0 
L 44.484375 32.71875 
Q 44.484375 40.625 41.703125 44.40625 
Q 38.921875 48.1875 33.109375 48.1875 
Q 26.21875 48.1875 22.15625 43.53125 
Q 18.109375 38.875 18.109375 30.90625 
L 18.109375 0 
L 9.078125 0 
L 9.078125 54.6875 
L 18.109375 54.6875 
L 18.109375 46.1875 
Q 21.1875 51.21875 25.484375 53.609375 
Q 29.78125 56 35.6875 56 
Q 41.65625 56 45.828125 52.96875 
Q 50 49.953125 52 44.1875 
z
" id="DejaVuSans-6d"/>
     </defs>
     <g transform="translate(94.6 267.148062)scale(0.1 -0.1)">
      <use xlink:href="#DejaVuSans-4f"/>
      <use x="78.710938" xlink:href="#DejaVuSans-69"/>
      <use x="106.494141" xlink:href="#DejaVuSans-6c"/>
      <use x="134.277344" xlink:href="#DejaVuSans-20"/>
      <use x="166.064453" xlink:href="#DejaVuSans-63"/>
      <use x="221.044922" xlink:href="#DejaVuSans-6f"/>
      <use x="282.226562" xlink:href="#DejaVuSans-6e"/>
      <use x="345.605469" xlink:href="#DejaVuSans-73"/>
      <use x="397.705078" xlink:href="#DejaVuSans-75"/>
      <use x="461.083984" xlink:href="#DejaVuSans-6d"/>
      <use x="558.496094" xlink:href="#DejaVuSans-70"/>
      <use x="621.972656" xlink:href="#DejaVuSans-74"/>
      <use x="661.181641" xlink:href="#DejaVuSans-69"/>
      <use x="688.964844" xlink:href="#DejaVuSans-6f"/>
      <use x="750.146484" xlink:href="#DejaVuSans-6e"/>
     </g>
    </g>
    <g id="patch_163">
     <path d="M 66.6 281.826187 
L 86.6 281.826187 
L 86.6 274.826187 
L 66.6 274.826187 
z
" style="fill:#008000;stroke:#008000;stroke-linejoin:miter;"/>
    </g>
    <g id="text_19">
     <!-- Net Exports -->
     <defs>
      <path d="M 9.8125 72.90625 
L 23.09375 72.90625 
L 55.421875 11.921875 
L 55.421875 72.90625 
L 64.984375 72.90625 
L 64.984375 0 
L 51.703125 0 
L 19.390625 60.984375 
L 19.390625 0 
L 9.8125 0 
z
" id="DejaVuSans-4e"/>
      <path d="M 9.8125 72.90625 
L 55.90625 72.90625 
L 55.90625 64.59375 
L 19.671875 64.59375 
L 19.671875 43.015625 
L 54.390625 43.015625 
L 54.390625 34.71875 
L 19.671875 34.71875 
L 19.671875 8.296875 
L 56.78125 8.296875 
L 56.78125 0 
L 9.8125 0 
z
" id="DejaVuSans-45"/>
      <path d="M 54.890625 54.6875 
L 35.109375 28.078125 
L 55.90625 0 
L 45.3125 0 
L 29.390625 21.484375 
L 13.484375 0 
L 2.875 0 
L 24.125 28.609375 
L 4.6875 54.6875 
L 15.28125 54.6875 
L 29.78125 35.203125 
L 44.28125 54.6875 
z
" id="DejaVuSans-78"/>
     </defs>
     <g transform="translate(94.6 281.826187)scale(0.1 -0.1)">
      <use xlink:href="#DejaVuSans-4e"/>
      <use x="74.804688" xlink:href="#DejaVuSans-65"/>
      <use x="136.328125" xlink:href="#DejaVuSans-74"/>
      <use x="175.537109" xlink:href="#DejaVuSans-20"/>
      <use x="207.324219" xlink:href="#DejaVuSans-45"/>
      <use x="270.507812" xlink:href="#DejaVuSans-78"/>
      <use x="329.6875" xlink:href="#DejaVuSans-70"/>
      <use x="393.164062" xlink:href="#DejaVuSans-6f"/>
      <use x="454.345703" xlink:href="#DejaVuSans-72"/>
      <use x="495.458984" xlink:href="#DejaVuSans-74"/>
      <use x="534.667969" xlink:href="#DejaVuSans-73"/>
     </g>
    </g>
    <g id="patch_164">
     <path d="M 66.6 296.504312 
L 86.6 296.504312 
L 86.6 289.504312 
L 66.6 289.504312 
z
" style="fill:#ff0000;stroke:#ff0000;stroke-linejoin:miter;"/>
    </g>
    <g id="text_20">
     <!-- Net Imports -->
     <defs>
      <path d="M 9.8125 72.90625 
L 19.671875 72.90625 
L 19.671875 0 
L 9.8125 0 
z
" id="DejaVuSans-49"/>
     </defs>
     <g transform="translate(94.6 296.504312)scale(0.1 -0.1)">
      <use xlink:href="#DejaVuSans-4e"/>
      <use x="74.804688" xlink:href="#DejaVuSans-65"/>
      <use x="136.328125" xlink:href="#DejaVuSans-74"/>
      <use x="175.537109" xlink:href="#DejaVuSans-20"/>
      <use x="207.324219" xlink:href="#DejaVuSans-49"/>
      <use x="236.816406" xlink:href="#DejaVuSans-6d"/>
      <use x="334.228516" xlink:href="#DejaVuSans-70"/>
      <use x="397.705078" xlink:href="#DejaVuSans-6f"/>
      <use x="458.886719" xlink:href="#DejaVuSans-72"/>
      <use x="500" xlink:href="#DejaVuSans-74"/>
      <use x="539.208984" xlink:href="#DejaVuSans-73"/>
     </g>
    </g>
   </g>
  </g>
 </g>
 <defs>
  <clipPath id="p8f0ff4d874">
   <rect height="266.112" width="357.12" x="57.6" y="41.472"/>
  </clipPath>
 </defs>
</svg>
